<?xml version="1.0" standalone="no"?>
<!DOCTYPE svg PUBLIC "-//W3C//DTD SVG 20010904//EN"
 "http://www.w3.org/TR/2001/REC-SVG-20010904/DTD/svg10.dtd">
<svg version="1.0" xmlns="http://www.w3.org/2000/svg"
 width="600.000000pt" height="588.000000pt" viewBox="0 0 600.000000 588.000000"
 preserveAspectRatio="xMidYMid meet">
<metadata>
Created by potrace 1.10, written by Peter Selinger 2001-2011
</metadata>
<g transform="translate(0.000000,588.000000) scale(0.100000,-0.100000)"
fill="#ff0000" stroke="none">
<path d="M2765 5689 c-339 -31 -682 -115 -940 -229 -94 -41 -251 -120 -303
-152 -34 -21 -64 -38 -66 -38 -15 0 -296 -199 -326 -230 -3 -3 -41 -36 -85
-75 -515 -453 -828 -1052 -917 -1755 -17 -136 -17 -487 0 -610 17 -120 57
-330 76 -395 8 -27 20 -68 26 -90 15 -52 34 -107 60 -175 12 -30 27 -71 35
-91 21 -57 118 -248 163 -322 23 -37 42 -69 42 -72 0 -9 67 -104 153 -218 169
-223 476 -510 672 -627 22 -13 42 -27 45 -30 3 -3 34 -23 70 -44 36 -20 72
-41 80 -46 19 -12 216 -108 255 -125 17 -7 41 -18 55 -24 75 -33 246 -90 360
-121 19 -5 60 -16 91 -24 134 -37 479 -76 671 -76 146 0 366 18 468 39 25 6
63 13 85 16 91 14 328 76 400 105 11 4 43 16 70 25 52 18 99 37 150 60 350
158 606 331 856 577 147 145 176 178 285 323 97 129 178 256 239 375 21 41 42
82 46 90 63 118 161 409 208 615 52 232 72 558 47 795 -34 320 -57 423 -171
750 -34 98 -164 360 -182 367 -8 3 -30 -2 -49 -11 -39 -18 -123 -47 -204 -69
-366 -100 -751 -87 -1120 40 -170 58 -435 207 -570 320 -115 96 -279 273 -350
377 -160 237 -245 427 -305 686 -10 41 -23 80 -29 86 -7 7 -38 8 -91 3z
m-1442 -2293 c52 -23 95 -63 119 -111 22 -46 47 -220 32 -234 -5 -5 -36 -11
-69 -12 -55 -3 -61 -1 -72 22 -7 13 -11 30 -8 38 3 7 0 40 -7 73 -23 109 -67
125 -332 115 -162 -5 -231 -21 -254 -57 -42 -68 -52 -278 -28 -597 16 -210 24
-229 104 -260 39 -15 75 -18 222 -17 275 1 299 15 309 183 l6 96 73 3 72 3 0
-95 c0 -161 -46 -261 -135 -292 -97 -34 -384 -47 -531 -24 -134 20 -213 78
-248 180 -32 95 -49 293 -43 515 6 277 14 311 87 385 90 93 165 109 470 106
158 -2 202 -6 233 -20z m863 -98 c22 -59 43 -111 47 -114 4 -4 7 -14 7 -23 0
-9 7 -29 15 -45 8 -15 15 -33 15 -38 0 -6 6 -24 14 -41 8 -18 69 -180 135
-362 67 -181 131 -349 142 -373 30 -62 22 -72 -53 -72 -35 0 -69 4 -76 8 -7 5
-21 35 -33 68 -11 32 -27 73 -35 91 -7 17 -14 38 -14 46 0 9 -6 19 -12 24 -7
4 -138 8 -291 8 -317 2 -283 12 -319 -98 -11 -34 -29 -81 -39 -104 l-19 -43
-70 0 c-38 0 -72 5 -75 11 -4 6 7 45 23 87 17 42 58 154 92 247 34 94 66 178
71 187 5 10 9 23 9 29 0 6 6 25 14 42 19 44 106 283 106 292 0 4 6 21 14 38 7
18 24 61 37 97 12 36 31 84 41 108 l18 43 97 -3 98 -3 41 -107z m1217 96 c119
-31 194 -104 233 -229 16 -52 19 -93 19 -325 -1 -276 -6 -324 -52 -435 -26
-63 -101 -129 -169 -151 -53 -17 -94 -19 -404 -19 l-345 0 -3 575 c-1 316 0
581 3 588 7 20 638 17 718 -4z m1133 -21 c4 -20 3 -48 -2 -62 l-9 -26 -303 -3
-302 -2 2 -187 3 -187 265 2 c146 1 277 0 293 -4 25 -5 27 -9 27 -60 0 -43 -4
-56 -17 -61 -10 -4 -142 -7 -293 -8 l-275 0 0 -205 0 -205 302 -3 303 -2 6
-24 c3 -12 4 -40 2 -62 l-3 -39 -380 0 -380 0 -3 575 c-1 316 0 581 3 588 3 9
89 12 379 12 l375 0 7 -37z m942 -27 c2 -32 -1 -63 -6 -68 -4 -4 -85 -8 -180
-9 -97 0 -174 -4 -177 -9 -3 -6 -6 -237 -5 -514 1 -566 8 -516 -80 -516 -88 0
-81 -50 -80 516 1 277 -2 509 -5 514 -4 6 -67 10 -163 9 -86 0 -167 0 -179 0
-21 1 -23 6 -23 64 0 35 3 67 7 70 3 4 205 6 447 5 l441 -3 3 -59z"/>
<path d="M2036 3253 c-3 -3 -6 -15 -6 -27 0 -17 -45 -152 -71 -211 -12 -29
-39 -105 -49 -140 -4 -16 -18 -55 -30 -85 -37 -98 -60 -164 -60 -177 0 -10 50
-13 235 -13 214 0 258 5 226 25 -5 3 -13 20 -17 37 -3 18 -10 39 -15 48 -4 8
-22 56 -39 105 -17 50 -37 106 -45 125 -44 117 -105 288 -105 298 0 14 -15 24
-24 15z"/>
<path d="M2839 3279 c-6 -3 -8 -189 -7 -460 l3 -454 245 0 c220 0 250 2 295
20 90 35 112 74 131 234 17 146 17 222 0 392 -26 254 -45 266 -419 271 -132 2
-243 0 -248 -3z"/>
</g>
</svg>
