<svg id="svg" xmlns="http://www.w3.org/2000/svg" xmlns:xlink="http://www.w3.org/1999/xlink" width="400" height="416" viewBox="0, 0, 400,416"><g id="svgg"><path id="path0" d="M205.590 61.426 C 205.376 61.990,205.200 66.282,205.200 70.964 C 205.200 80.538,205.179 80.468,208.200 80.958 C 210.349 81.306,216.029 82.799,216.895 83.243 C 217.277 83.440,217.800 83.600,218.058 83.600 C 220.886 83.600,232.379 90.782,236.838 95.335 C 246.152 104.847,249.922 115.106,249.979 131.100 C 250.010 139.447,257.312 138.400,199.049 138.400 C 153.803 138.400,149.653 138.455,149.154 139.056 C 147.806 140.680,145.297 154.758,146.100 156.193 C 146.402 156.732,154.272 156.800,216.571 156.800 C 292.926 156.800,288.025 156.949,287.448 154.650 C 287.316 154.122,286.937 151.735,286.606 149.345 C 285.820 143.668,284.914 138.751,284.406 137.416 C 284.183 136.829,284.000 135.940,284.000 135.441 C 284.000 134.943,283.630 133.289,283.177 131.767 C 282.725 130.245,282.078 128.010,281.740 126.800 C 278.912 116.682,273.373 104.685,267.703 96.400 C 260.665 86.115,252.399 78.121,242.600 72.127 C 238.394 69.554,228.846 65.351,224.600 64.204 C 218.580 62.577,216.389 62.062,214.400 61.805 C 213.190 61.648,211.120 61.271,209.800 60.966 C 206.483 60.200,206.038 60.249,205.590 61.426 M177.600 61.836 C 172.369 62.718,166.804 64.146,164.600 65.171 C 164.160 65.375,162.810 65.847,161.600 66.220 C 159.419 66.891,149.442 71.701,145.186 74.134 C 139.408 77.437,129.032 85.698,124.198 90.844 C 120.818 94.441,116.068 100.050,114.429 102.380 C 112.331 105.361,108.400 111.228,108.400 111.378 C 108.400 111.466,107.545 113.044,106.500 114.886 C 104.346 118.682,103.605 120.151,102.408 123.000 C 101.945 124.100,101.304 125.478,100.984 126.062 C 100.663 126.646,100.400 127.338,100.400 127.601 C 100.400 127.864,100.138 128.646,99.818 129.340 C 99.083 130.930,98.039 133.834,97.635 135.409 C 97.465 136.075,97.117 137.008,96.863 137.483 C 96.608 137.958,96.400 138.713,96.400 139.160 C 96.400 139.606,96.116 140.809,95.769 141.831 C 95.113 143.764,94.788 145.341,93.800 151.400 C 93.477 153.380,93.011 155.979,92.763 157.175 C 92.030 160.711,92.179 181.934,92.972 186.909 C 94.242 194.889,95.281 200.613,95.638 201.600 C 95.837 202.150,96.162 203.410,96.362 204.400 C 96.561 205.390,96.910 206.740,97.139 207.400 C 97.368 208.060,98.000 209.950,98.544 211.600 C 99.088 213.250,99.921 215.590,100.396 216.800 C 100.871 218.010,101.403 219.456,101.578 220.014 C 102.036 221.480,106.990 231.291,108.285 233.297 C 109.800 235.646,110.321 236.501,110.660 237.200 C 113.353 242.755,125.113 255.805,133.800 262.877 C 137.888 266.205,148.754 272.950,153.200 274.919 C 161.870 278.758,170.787 281.788,175.800 282.598 C 176.680 282.740,178.480 283.107,179.800 283.413 C 190.334 285.860,210.905 285.640,222.600 282.955 C 225.855 282.208,234.722 279.617,235.600 279.156 C 235.930 278.983,237.820 278.171,239.800 277.352 C 251.675 272.438,265.958 261.635,273.318 252.000 C 274.242 250.790,275.104 249.710,275.234 249.600 C 275.702 249.202,280.000 243.236,280.000 242.983 C 280.000 242.840,280.339 242.246,280.753 241.662 C 282.846 238.711,286.723 231.089,286.889 229.600 L 287.000 228.600 278.102 228.492 L 269.203 228.385 268.102 230.000 C 256.746 246.652,244.980 255.008,227.600 258.765 C 206.331 263.363,181.025 260.496,165.200 251.695 C 163.770 250.900,162.240 250.055,161.800 249.818 C 156.140 246.765,145.772 237.464,141.494 231.600 C 140.451 230.170,139.460 228.820,139.292 228.600 C 132.343 219.498,125.675 201.834,123.589 187.000 C 123.341 185.240,122.953 182.540,122.727 181.000 C 122.155 177.104,122.174 153.712,122.753 150.200 C 123.006 148.660,123.459 145.870,123.758 144.000 C 124.718 137.996,126.820 130.322,128.649 126.140 C 128.952 125.446,129.200 124.742,129.200 124.575 C 129.200 122.925,135.832 111.174,139.750 105.881 C 146.284 97.056,163.633 84.022,168.878 83.998 C 169.165 83.996,169.876 83.747,170.458 83.443 C 171.039 83.140,173.559 82.389,176.058 81.775 C 182.487 80.194,182.000 81.097,182.000 70.752 C 182.000 60.537,182.254 61.051,177.600 61.836 " stroke="none" fill="#f41010" fill-rule="evenodd"></path><path id="path1" d="M153.971 317.184 C 143.369 318.587,134.554 331.129,138.137 339.713 C 138.433 340.421,138.801 341.675,138.955 342.500 C 139.110 343.325,139.389 344.000,139.575 344.000 C 139.761 344.000,140.023 344.438,140.158 344.974 C 140.292 345.510,141.564 347.128,142.984 348.569 C 146.171 351.803,146.475 352.343,146.017 353.941 C 145.800 354.696,145.813 355.738,146.049 356.592 C 146.304 357.518,146.299 358.503,146.032 359.468 C 145.532 361.279,146.421 363.476,147.878 364.030 C 148.403 364.229,149.141 364.977,149.517 365.690 C 152.632 371.607,159.975 372.428,162.477 367.141 C 163.120 365.784,165.284 363.600,165.987 363.600 C 166.599 363.600,166.876 361.402,166.849 356.753 L 166.822 352.107 169.511 349.330 C 172.515 346.228,174.150 343.484,174.593 340.799 C 174.757 339.810,175.066 338.783,175.280 338.517 C 175.730 337.959,175.495 333.926,174.840 330.976 C 172.846 321.988,163.642 315.905,153.971 317.184 M162.439 319.665 C 174.386 323.920,177.615 340.419,168.137 348.774 C 165.388 351.198,163.625 352.000,161.045 352.000 C 157.786 352.000,156.398 350.108,158.803 348.945 C 159.351 348.680,160.700 348.035,161.800 347.512 C 165.550 345.729,167.859 339.488,166.024 336.095 C 165.818 335.713,165.190 334.349,164.630 333.064 C 163.369 330.172,160.220 326.162,157.528 324.018 C 154.629 321.710,153.600 321.985,153.600 325.068 C 153.600 327.047,152.566 329.257,150.154 332.432 C 144.868 339.389,145.707 344.571,152.683 348.046 C 155.659 349.529,156.106 350.294,154.774 351.626 C 151.262 355.138,140.943 347.660,139.848 340.810 C 139.692 339.836,139.376 338.812,139.145 338.533 C 138.151 337.336,139.562 330.395,141.455 327.162 C 145.689 319.932,154.425 316.811,162.439 319.665 M74.046 322.145 C 73.718 322.539,73.622 328.764,73.697 344.645 L 73.800 366.600 81.705 366.708 L 89.609 366.817 90.073 365.799 C 90.389 365.105,90.420 364.308,90.168 363.291 L 89.800 361.800 85.275 361.583 C 79.700 361.316,80.012 361.765,80.012 354.000 C 80.012 346.448,79.726 346.914,84.467 346.741 C 88.913 346.579,88.828 346.625,89.099 344.223 C 89.402 341.527,88.951 341.200,84.925 341.200 C 79.795 341.200,80.000 341.490,80.000 334.235 C 80.000 326.722,79.780 327.023,85.337 326.939 C 90.302 326.865,91.794 325.369,89.777 322.489 C 89.003 321.384,74.933 321.076,74.046 322.145 M156.591 328.643 C 157.533 330.081,158.801 334.831,158.794 336.895 C 158.781 340.384,157.709 340.267,155.000 336.478 C 152.211 332.578,152.255 332.794,153.675 330.040 C 155.066 327.342,155.578 327.097,156.591 328.643 M159.840 330.240 C 159.663 330.703,159.440 330.800,159.174 330.534 C 158.954 330.314,158.894 329.822,159.040 329.440 C 159.217 328.977,159.440 328.880,159.706 329.146 C 159.926 329.366,159.986 329.858,159.840 330.240 M191.895 333.117 C 187.556 334.673,185.600 337.441,185.600 342.024 C 185.600 347.535,187.367 349.371,195.800 352.623 C 202.051 355.033,204.459 359.051,201.900 362.800 C 198.226 368.183,188.839 365.540,186.629 358.500 C 186.353 357.622,185.062 357.253,184.642 357.932 C 184.529 358.115,184.696 359.240,185.014 360.432 C 185.331 361.624,185.593 363.091,185.595 363.691 C 185.613 367.762,199.083 368.880,204.200 365.235 C 211.618 359.949,208.685 351.052,198.182 346.983 C 189.076 343.455,186.575 338.145,192.626 335.193 C 196.725 333.194,204.400 336.009,204.400 339.511 C 204.400 340.038,205.939 340.423,206.221 339.967 C 206.591 339.368,205.645 335.112,204.978 334.376 C 203.377 332.606,195.445 331.843,191.895 333.117 M163.154 333.751 C 165.715 336.477,165.380 342.624,162.536 345.113 C 160.567 346.837,159.773 346.681,159.885 344.591 C 159.931 343.716,160.034 341.069,160.114 338.710 C 160.299 333.214,161.228 331.700,163.154 333.751 M152.453 335.900 C 157.495 341.431,158.640 344.274,156.590 346.174 C 153.063 349.443,146.385 341.854,148.660 337.161 C 149.997 334.404,150.835 334.125,152.453 335.900 M100.262 336.583 C 93.271 339.076,91.655 358.800,98.005 364.143 C 101.670 367.226,107.569 365.919,106.643 362.229 C 106.404 361.275,106.207 361.144,105.282 361.324 C 103.662 361.639,101.849 360.579,100.772 358.686 C 99.608 356.639,99.301 345.922,100.351 344.000 C 101.576 341.760,102.864 340.800,104.648 340.800 C 106.565 340.800,107.059 340.091,106.600 338.002 C 106.197 336.166,103.270 335.511,100.262 336.583 M118.000 336.327 C 113.372 337.590,110.824 342.740,110.841 350.800 C 110.863 360.982,114.782 366.691,121.111 365.758 C 126.115 365.020,128.799 359.869,128.800 351.000 C 128.800 340.187,124.629 334.519,118.000 336.327 M263.069 341.956 C 262.296 343.032,260.930 344.326,260.032 344.830 C 258.371 345.763,257.941 346.400,258.971 346.400 C 260.793 346.400,261.200 348.128,261.200 355.867 C 261.200 364.156,261.496 365.460,263.676 366.790 C 265.846 368.113,270.665 367.348,271.640 365.526 C 272.143 364.586,271.790 364.050,271.113 364.727 C 270.358 365.482,268.092 365.292,267.200 364.400 C 266.455 363.655,266.400 363.067,266.400 355.876 C 266.400 346.773,266.403 346.765,269.763 346.486 C 271.549 346.338,271.998 346.170,271.823 345.716 C 271.700 345.396,271.600 345.059,271.600 344.967 C 271.600 344.875,270.713 344.800,269.629 344.800 C 267.126 344.800,266.400 344.119,266.400 341.771 C 266.400 339.181,265.008 339.258,263.069 341.956 M121.774 341.300 C 124.734 343.914,124.675 358.255,121.695 360.698 C 118.676 363.173,116.459 360.039,116.102 352.795 C 115.640 343.384,118.218 338.159,121.774 341.300 M244.000 344.382 C 235.285 346.050,235.635 354.926,244.542 358.142 C 249.205 359.825,250.755 362.228,248.700 364.590 C 246.853 366.713,240.575 366.042,239.813 363.640 C 239.666 363.178,239.390 362.800,239.200 362.800 C 239.010 362.800,238.740 362.440,238.600 362.000 C 238.119 360.484,237.600 361.205,237.600 363.391 C 237.600 365.959,238.114 366.454,241.520 367.160 C 248.550 368.619,253.246 366.163,253.509 360.891 C 253.726 356.532,252.742 355.537,245.489 352.777 C 242.042 351.466,241.018 349.886,242.170 347.658 C 243.770 344.563,248.280 345.040,250.552 348.544 L 251.567 350.110 252.044 349.063 C 253.489 345.893,249.187 343.390,244.000 344.382 M286.000 344.415 C 274.370 346.745,272.295 362.731,283.094 366.809 C 286.849 368.226,292.821 367.281,295.560 364.835 C 297.369 363.221,297.001 362.670,294.800 363.700 C 289.221 366.309,283.683 364.275,282.393 359.142 C 281.518 355.660,282.234 355.348,291.968 354.965 C 297.162 354.761,297.779 354.482,297.409 352.509 C 296.317 346.688,291.547 343.304,286.000 344.415 M317.919 344.413 C 317.104 344.553,315.326 345.414,313.968 346.326 C 311.303 348.116,310.803 348.139,310.794 346.476 C 310.783 344.550,310.333 344.268,307.744 344.571 C 303.627 345.052,301.670 345.988,303.539 346.581 C 305.005 347.046,305.365 348.707,305.520 355.736 C 305.687 363.304,305.603 363.929,304.236 365.244 C 302.809 366.618,303.221 366.800,307.757 366.800 C 312.401 366.800,312.774 366.650,311.504 365.296 C 310.010 363.704,310.206 352.737,311.770 350.373 C 313.800 347.306,317.656 346.761,319.218 349.322 C 320.401 351.262,320.397 363.787,319.213 365.292 C 318.133 366.665,318.422 366.800,322.434 366.800 C 326.878 366.800,327.662 366.552,326.349 365.561 C 324.937 364.495,324.886 353.160,326.282 350.550 C 327.889 347.547,332.240 346.721,333.861 349.111 C 335.044 350.855,335.202 363.052,334.067 364.976 C 333.015 366.760,333.092 366.800,337.600 366.800 C 341.856 366.800,342.490 366.573,341.118 365.539 C 340.225 364.867,340.194 364.618,339.988 356.524 C 339.801 349.222,339.680 348.045,339.000 346.935 C 336.834 343.399,331.918 343.452,327.899 347.055 C 327.073 347.795,326.218 348.400,325.999 348.400 C 325.505 348.400,324.000 346.929,324.000 346.446 C 324.000 345.264,320.254 344.011,317.919 344.413 M211.470 345.362 C 211.351 345.672,211.626 346.257,212.080 346.662 C 212.894 347.389,214.158 349.901,217.281 357.000 C 218.152 358.980,219.106 361.140,219.400 361.800 C 219.694 362.460,220.312 363.883,220.772 364.963 L 221.611 366.925 220.804 369.081 C 218.965 373.996,217.550 375.600,215.053 375.600 C 213.556 375.600,212.774 376.015,212.396 377.012 C 211.462 379.468,213.362 380.354,216.316 378.839 C 218.741 377.595,219.391 376.654,222.011 370.600 C 222.201 370.160,222.996 368.401,223.778 366.691 C 224.560 364.981,225.200 363.487,225.200 363.369 C 225.200 363.185,225.833 361.676,227.199 358.600 C 227.395 358.160,228.504 355.550,229.664 352.800 C 230.824 350.050,232.184 347.387,232.687 346.882 C 234.262 345.298,233.903 344.800,231.187 344.800 C 228.698 344.800,227.722 345.482,228.747 346.507 C 230.213 347.973,225.943 358.817,224.126 358.240 C 222.625 357.764,218.704 347.679,219.600 346.600 C 219.869 346.276,219.985 345.738,219.857 345.405 C 219.530 344.552,211.796 344.513,211.470 345.362 M288.681 346.384 C 290.853 347.708,292.106 351.426,290.879 352.905 C 290.280 353.627,283.835 354.154,282.745 353.570 C 281.092 352.686,282.520 347.414,284.740 346.208 C 286.189 345.421,287.173 345.464,288.681 346.384 M164.294 353.429 C 165.653 353.708,165.967 355.535,164.816 356.467 C 163.353 357.652,149.260 357.572,148.175 356.373 C 147.092 355.176,148.062 353.491,150.014 353.177 C 151.528 352.934,162.853 353.134,164.294 353.429 M164.711 359.423 C 165.200 359.765,165.600 360.385,165.600 360.800 C 165.600 362.519,164.299 362.800,156.340 362.800 C 147.662 362.800,145.936 362.102,148.262 359.531 C 149.187 358.509,163.274 358.416,164.711 359.423 M160.800 364.800 C 162.317 366.317,159.578 369.200,156.619 369.200 C 153.421 369.200,150.463 365.392,152.900 364.412 C 154.747 363.670,159.924 363.924,160.800 364.800 " stroke="none" fill="#252526" fill-rule="evenodd"></path><path id="path2" d="M0.000 208.000 L 0.000 416.000 200.000 416.000 L 400.000 416.000 400.000 208.000 L 400.000 0.000 200.000 0.000 L 0.000 0.000 0.000 208.000 M213.391 60.636 C 234.815 64.878,250.005 73.377,262.658 88.200 C 264.795 90.704,270.800 98.963,270.800 99.400 C 270.800 99.494,271.790 101.286,273.000 103.382 C 274.210 105.478,275.200 107.290,275.200 107.408 C 275.200 107.526,275.820 108.876,276.577 110.408 C 279.086 115.484,283.171 127.341,284.637 133.800 C 285.691 138.445,286.753 143.821,287.008 145.800 C 287.150 146.900,287.521 149.097,287.833 150.683 C 288.526 154.208,288.557 156.483,287.920 157.120 C 287.254 157.786,145.784 157.822,145.373 157.156 C 144.935 156.447,145.161 151.761,145.784 148.655 C 146.098 147.085,146.478 144.900,146.628 143.800 C 146.778 142.700,147.033 141.620,147.195 141.400 C 147.357 141.180,147.619 140.461,147.777 139.802 C 147.935 139.143,148.252 138.378,148.481 138.102 C 148.811 137.704,159.085 137.599,197.949 137.595 C 224.927 137.592,247.418 137.477,247.929 137.340 L 248.858 137.092 248.672 129.046 C 248.253 110.959,243.057 100.107,230.510 91.116 C 226.218 88.039,220.446 85.158,216.000 83.871 C 214.790 83.521,212.900 82.963,211.800 82.632 C 210.700 82.300,208.849 81.909,207.687 81.761 C 203.983 81.292,203.925 81.107,204.074 70.213 C 204.143 65.146,204.346 60.775,204.524 60.500 C 204.981 59.793,209.486 59.862,213.391 60.636 M182.557 61.033 C 182.691 61.381,182.800 65.822,182.800 70.901 C 182.800 80.657,182.629 81.591,180.838 81.605 C 179.973 81.611,173.031 83.408,170.800 84.203 C 159.920 88.079,150.235 94.780,142.765 103.600 C 140.163 106.672,136.400 111.839,136.400 112.340 C 136.400 112.534,136.062 113.122,135.648 113.648 C 132.982 117.038,127.832 129.674,126.212 136.800 C 125.838 138.450,125.291 140.700,124.998 141.800 C 123.019 149.228,122.136 174.466,123.622 181.100 C 123.853 182.130,124.210 184.509,124.415 186.387 C 125.207 193.636,128.342 205.306,131.435 212.516 C 133.280 216.818,138.305 226.135,139.669 227.783 C 139.859 228.013,140.945 229.460,142.084 231.000 C 155.957 249.759,178.441 259.817,206.400 259.770 C 235.773 259.721,252.457 251.390,267.330 229.345 C 268.752 227.236,268.955 227.200,279.259 227.200 L 287.617 227.200 288.045 228.140 C 289.597 231.546,276.107 251.782,266.006 261.200 C 231.361 293.505,171.461 294.809,133.800 264.079 C 123.449 255.634,114.771 245.751,108.090 234.800 C 106.442 232.100,101.529 222.174,100.565 219.600 C 100.030 218.170,99.419 216.640,99.207 216.200 C 98.313 214.345,96.590 208.892,95.983 206.000 C 95.775 205.010,95.435 203.840,95.227 203.400 C 94.880 202.666,94.046 198.479,92.597 190.200 C 91.720 185.187,91.046 172.539,91.366 167.079 C 91.853 158.761,92.298 153.897,92.800 151.400 C 94.315 143.866,94.885 141.332,95.197 140.749 C 95.389 140.391,95.666 139.401,95.813 138.549 C 96.100 136.889,97.549 132.460,98.021 131.800 C 98.179 131.580,98.435 130.803,98.592 130.073 C 98.748 129.343,99.127 128.263,99.435 127.673 C 99.743 127.083,99.996 126.482,99.998 126.338 C 99.999 126.193,100.900 124.186,102.000 121.877 C 103.100 119.569,104.000 117.584,104.000 117.467 C 104.000 116.596,112.922 102.637,115.337 99.730 C 115.592 99.423,115.980 98.952,116.200 98.683 C 124.054 89.085,130.112 83.441,140.200 76.327 C 142.050 75.022,151.086 69.600,151.410 69.600 C 151.488 69.600,153.048 68.902,154.876 68.050 C 156.704 67.197,159.820 65.927,161.800 65.226 C 163.780 64.526,166.120 63.696,167.000 63.382 C 167.880 63.069,169.410 62.637,170.400 62.423 C 171.390 62.208,173.730 61.684,175.600 61.257 C 179.965 60.261,182.233 60.188,182.557 61.033 M159.922 315.981 C 162.292 316.323,166.773 318.100,168.231 319.274 C 178.601 327.628,179.422 341.360,170.098 350.510 L 168.151 352.421 168.252 357.492 L 168.352 362.564 166.376 364.582 C 165.289 365.692,163.807 367.410,163.083 368.400 C 159.281 373.597,151.245 372.806,149.156 367.029 C 148.873 366.247,148.232 365.544,147.510 365.224 C 145.318 364.254,144.885 362.933,144.973 357.472 L 145.052 352.600 142.326 349.699 C 140.827 348.103,139.600 346.528,139.600 346.199 C 139.600 345.869,139.441 345.600,139.247 345.600 C 139.053 345.600,138.593 344.745,138.225 343.700 C 132.702 328.041,143.950 313.671,159.922 315.981 M152.600 320.358 C 143.708 322.041,138.020 332.521,141.221 341.325 C 142.908 345.963,147.041 350.150,150.357 350.579 C 152.523 350.858,155.141 350.284,153.800 349.824 C 145.360 346.922,143.129 338.651,149.022 332.109 C 149.770 331.279,150.386 330.478,150.391 330.329 C 150.396 330.179,150.632 329.819,150.915 329.529 C 151.762 328.660,152.800 325.486,152.800 323.767 C 152.800 317.862,161.375 323.793,165.861 332.800 C 169.642 340.393,167.345 346.863,159.800 349.867 C 159.230 350.094,159.655 350.222,161.282 350.312 C 168.533 350.714,174.484 340.605,172.125 331.894 C 169.824 323.399,161.749 318.628,152.600 320.358 M90.577 321.289 C 90.966 321.845,91.200 323.045,91.200 324.489 C 91.200 327.992,90.618 328.400,85.614 328.400 C 80.699 328.400,80.800 328.267,80.800 334.727 C 80.800 340.309,80.488 339.986,85.886 339.995 C 89.760 340.001,90.000 340.228,90.000 343.885 C 90.000 347.538,89.484 348.000,85.410 348.000 C 80.481 348.000,80.800 347.582,80.800 354.035 C 80.800 360.495,80.257 359.902,86.332 360.086 C 90.814 360.223,91.200 360.541,91.200 364.103 C 91.200 368.192,91.664 368.000,81.800 368.000 C 73.735 368.000,73.204 367.954,72.814 367.226 C 72.064 365.825,72.261 322.376,73.023 321.289 C 73.632 320.420,73.827 320.400,81.800 320.400 C 89.773 320.400,89.968 320.420,90.577 321.289 M154.680 330.480 C 153.712 332.167,153.826 332.996,155.300 335.001 C 156.580 336.741,157.600 337.306,157.600 336.273 C 157.600 334.701,156.637 330.919,156.045 330.166 L 155.360 329.295 154.680 330.480 M200.935 331.564 C 206.469 332.773,207.200 333.568,207.200 338.377 C 207.200 342.660,205.573 343.203,203.291 339.680 C 200.496 335.367,194.452 334.209,191.657 337.451 C 189.091 340.426,191.602 343.272,199.200 346.002 C 216.057 352.058,210.489 370.948,192.584 368.443 C 185.602 367.467,184.330 366.269,183.808 360.176 C 183.325 354.535,186.191 354.184,188.507 359.600 C 190.870 365.126,200.294 366.234,201.418 361.118 C 202.101 358.007,200.689 355.931,196.870 354.431 C 188.068 350.975,186.113 349.500,184.632 345.200 C 181.592 336.374,190.158 329.209,200.935 331.564 M161.821 334.853 C 161.716 335.154,161.557 336.930,161.466 338.800 C 161.376 340.670,161.168 342.695,161.005 343.300 C 160.614 344.744,161.501 344.783,162.819 343.380 C 164.183 341.928,164.228 337.125,162.894 335.429 C 162.274 334.641,161.954 334.469,161.821 334.853 M105.717 335.391 C 109.172 336.835,108.487 342.565,104.908 342.152 C 100.835 341.683,98.705 351.654,101.585 357.704 C 102.514 359.655,102.898 359.883,105.597 360.092 C 107.267 360.221,108.212 361.724,107.801 363.595 C 106.663 368.778,98.239 367.966,95.397 362.400 C 93.350 358.392,92.492 349.039,93.768 344.649 C 94.116 343.455,94.400 342.032,94.400 341.487 C 94.400 340.943,94.670 340.274,95.000 340.000 C 95.330 339.726,95.600 339.289,95.600 339.029 C 95.600 336.385,102.316 333.970,105.717 335.391 M123.897 335.788 C 131.953 339.674,132.120 361.985,124.124 366.101 C 120.209 368.117,112.089 365.503,112.005 362.200 C 112.000 361.980,111.708 361.260,111.358 360.600 C 109.872 357.802,109.728 343.312,111.172 341.868 C 111.407 341.633,111.600 341.193,111.600 340.892 C 111.600 336.714,119.242 333.542,123.897 335.788 M150.014 337.174 C 148.064 340.817,152.534 346.948,155.848 345.174 C 157.529 344.275,156.878 342.904,152.011 337.102 C 151.243 336.186,150.529 336.212,150.014 337.174 M267.408 340.305 C 267.884 343.233,268.196 343.600,270.218 343.600 C 272.479 343.600,273.600 344.160,273.600 345.288 C 273.600 346.714,272.064 348.000,270.363 348.000 C 267.495 348.000,267.600 347.712,267.600 355.566 C 267.600 364.268,267.716 364.561,270.724 363.500 C 273.178 362.634,273.081 362.630,273.608 363.615 C 275.545 367.234,265.351 370.481,262.038 367.301 C 260.366 365.695,260.206 364.836,260.000 356.400 C 259.801 348.243,259.795 348.199,258.890 348.071 C 256.619 347.749,256.495 344.000,258.755 344.000 C 259.771 344.000,261.488 342.576,262.251 341.102 C 264.056 337.611,266.900 337.171,267.408 340.305 M118.650 342.344 C 116.557 344.657,117.032 359.112,119.225 359.808 C 121.979 360.682,122.512 359.202,122.502 350.699 C 122.493 342.240,121.228 339.496,118.650 342.344 M249.725 343.459 C 252.954 344.483,253.600 345.272,253.600 348.190 C 253.600 351.618,252.068 352.798,250.519 350.563 C 247.955 346.864,245.959 345.973,243.886 347.604 C 242.006 349.083,243.339 351.122,246.754 351.992 C 257.755 354.794,257.890 367.186,246.935 368.599 C 240.108 369.480,236.000 367.305,236.000 362.810 C 236.000 358.809,238.811 358.563,240.410 362.423 C 241.375 364.753,246.501 365.438,247.827 363.414 C 248.816 361.905,247.969 360.754,245.077 359.679 C 238.566 357.257,237.132 355.875,236.871 351.772 C 236.451 345.179,242.605 341.199,249.725 343.459 M291.545 343.580 C 295.620 345.069,297.473 347.234,298.395 351.578 C 299.303 355.856,298.220 356.400,288.786 356.400 C 283.601 356.400,282.863 356.892,283.827 359.706 C 285.095 363.412,289.578 364.696,293.923 362.600 C 299.047 360.128,300.094 363.700,295.104 366.625 C 284.199 373.016,271.758 364.177,275.470 352.675 C 276.974 348.012,279.306 345.666,284.800 343.287 C 286.373 342.606,289.219 342.730,291.545 343.580 M310.835 343.313 C 311.184 343.581,311.681 344.198,311.940 344.685 L 312.412 345.569 315.106 344.187 C 318.937 342.220,322.241 342.619,324.770 345.352 C 325.972 346.652,326.430 346.660,327.918 345.408 C 330.809 342.975,334.002 342.311,336.867 343.548 C 340.592 345.156,341.200 346.956,341.200 356.374 C 341.200 363.911,341.235 364.058,343.300 365.337 C 344.406 366.022,344.764 367.328,343.978 367.813 C 343.352 368.200,332.745 368.308,331.700 367.938 C 330.433 367.490,330.573 366.216,332.000 365.200 L 333.200 364.346 333.200 357.195 C 333.200 348.955,333.012 348.479,330.069 349.282 C 327.114 350.089,326.406 351.953,326.402 358.936 L 326.400 363.672 327.600 364.725 C 328.936 365.897,329.173 367.399,328.100 367.896 C 327.289 368.271,317.129 368.251,316.517 367.873 C 315.830 367.448,316.448 365.561,317.419 365.119 C 319.452 364.192,319.484 350.207,317.455 349.309 C 313.922 347.744,312.226 350.402,312.073 357.744 L 311.946 363.825 313.173 365.109 C 314.629 366.632,314.731 367.507,313.500 367.927 C 312.412 368.297,302.265 368.211,301.642 367.826 C 300.681 367.232,301.155 365.548,302.416 365.072 C 304.011 364.470,304.047 364.244,303.914 355.603 L 303.800 348.206 302.300 347.236 C 299.457 345.397,300.425 344.181,305.153 343.652 C 306.967 343.449,308.559 343.174,308.692 343.042 C 309.082 342.652,310.150 342.787,310.835 343.313 M221.960 344.151 C 222.528 344.836,221.944 346.582,221.031 346.933 C 220.113 347.285,220.231 347.927,221.901 351.678 C 224.377 357.238,224.446 357.296,225.547 354.743 C 226.056 353.565,226.726 352.090,227.037 351.466 C 228.090 349.351,228.168 347.476,227.236 346.633 C 224.954 344.567,226.491 343.543,231.658 343.686 L 235.800 343.800 235.921 345.043 C 236.022 346.079,235.856 346.365,234.921 346.762 C 233.478 347.375,232.857 348.288,231.224 352.200 C 230.489 353.960,229.569 356.120,229.178 357.000 C 228.209 359.186,227.403 361.068,223.961 369.180 C 219.790 379.012,216.113 382.438,211.828 380.485 C 210.026 379.665,211.134 374.489,213.140 374.356 C 215.652 374.189,216.397 374.020,217.338 373.404 C 217.922 373.021,218.400 372.464,218.400 372.166 C 218.400 371.868,218.784 370.888,219.253 369.988 C 220.147 368.272,220.117 364.372,219.207 364.069 C 218.983 363.994,218.800 363.735,218.800 363.493 C 218.800 363.251,218.458 362.321,218.040 361.426 C 217.621 360.532,217.004 359.170,216.668 358.400 C 215.610 355.974,213.169 350.668,212.309 348.924 C 211.803 347.898,211.040 347.065,210.341 346.776 C 209.236 346.318,208.723 344.611,209.467 343.867 C 210.025 343.308,221.476 343.569,221.960 344.151 M285.287 347.424 C 283.507 348.671,282.583 351.678,283.833 352.157 C 286.028 353.000,290.400 352.299,290.400 351.104 C 290.400 348.309,287.255 346.045,285.287 347.424 M149.452 354.859 C 147.993 355.706,149.723 355.988,156.400 355.988 C 163.884 355.989,165.226 355.811,164.109 354.964 C 163.208 354.280,150.603 354.190,149.452 354.859 M149.200 360.406 C 147.891 361.266,149.913 361.588,156.651 361.594 C 163.340 361.600,165.996 361.098,163.777 360.247 C 162.716 359.839,149.849 359.980,149.200 360.406 M153.433 365.947 C 152.977 366.685,154.882 367.800,156.600 367.800 C 158.224 367.800,160.000 366.827,160.000 365.938 C 160.000 365.491,153.709 365.499,153.433 365.947 " stroke="none" fill="#fbfbfb" fill-rule="evenodd"></path><path id="path3" d="M209.300 60.276 C 209.685 60.376,210.315 60.376,210.700 60.276 C 211.085 60.175,210.770 60.093,210.000 60.093 C 209.230 60.093,208.915 60.175,209.300 60.276 M181.700 60.832 C 182.085 61.056,182.414 61.726,182.432 62.320 C 182.449 62.914,182.557 63.167,182.671 62.883 C 183.039 61.965,182.419 60.399,181.692 60.412 C 181.041 60.424,181.041 60.448,181.700 60.832 M204.085 70.646 C 203.994 80.115,204.309 81.651,206.329 81.575 C 206.830 81.556,206.782 81.461,206.141 81.203 C 204.696 80.620,204.607 80.093,204.385 70.800 L 204.170 61.800 204.085 70.646 M156.224 67.413 C 155.796 67.736,155.627 68.000,155.847 68.000 C 156.067 68.000,156.596 67.736,157.024 67.413 C 157.451 67.090,157.620 66.825,157.400 66.825 C 157.180 66.825,156.651 67.090,156.224 67.413 M235.633 67.753 C 236.041 68.126,240.800 70.391,240.800 70.212 C 240.800 69.987,236.179 67.600,235.745 67.600 C 235.592 67.600,235.542 67.669,235.633 67.753 M153.200 68.800 C 152.430 69.222,151.980 69.566,152.200 69.566 C 152.420 69.566,153.230 69.222,154.000 68.800 C 154.770 68.378,155.220 68.034,155.000 68.034 C 154.780 68.034,153.970 68.378,153.200 68.800 M242.109 71.200 C 242.669 71.640,243.257 72.000,243.417 72.000 C 243.577 72.000,243.250 71.640,242.691 71.200 C 242.131 70.760,241.543 70.400,241.383 70.400 C 241.223 70.400,241.550 70.760,242.109 71.200 M244.175 72.359 C 244.297 72.557,245.039 73.098,245.823 73.560 C 246.607 74.023,247.148 74.239,247.025 74.041 C 246.903 73.843,246.161 73.302,245.377 72.840 C 244.593 72.377,244.052 72.161,244.175 72.359 M141.000 75.835 L 139.800 76.866 141.100 76.006 C 141.815 75.533,142.400 75.068,142.400 74.973 C 142.400 74.673,142.231 74.778,141.000 75.835 M136.785 78.829 L 135.400 80.058 136.900 78.981 C 138.226 78.030,138.657 77.600,138.285 77.600 C 138.222 77.600,137.547 78.153,136.785 78.829 M252.800 78.476 C 252.800 78.568,253.732 79.534,254.871 80.622 C 256.010 81.710,256.775 82.317,256.571 81.971 C 256.185 81.317,252.800 78.179,252.800 78.476 M181.714 80.680 C 181.227 81.186,180.974 81.600,181.152 81.600 C 181.542 81.600,182.998 80.045,182.764 79.877 C 182.674 79.813,182.201 80.174,181.714 80.680 M131.861 82.612 C 130.177 84.048,128.800 85.330,128.800 85.461 C 128.800 85.591,130.015 84.654,131.500 83.378 C 135.118 80.269,135.408 80.000,135.147 80.000 C 135.023 80.000,133.545 81.175,131.861 82.612 M175.800 82.400 C 175.296 82.617,175.222 82.744,175.600 82.744 C 175.930 82.744,176.560 82.589,177.000 82.400 C 177.504 82.183,177.578 82.056,177.200 82.056 C 176.870 82.056,176.240 82.211,175.800 82.400 M171.000 83.814 C 170.340 84.117,170.070 84.366,170.400 84.368 C 170.730 84.370,171.450 84.114,172.000 83.800 C 173.265 83.077,172.589 83.087,171.000 83.814 M259.950 85.541 C 260.844 86.608,261.892 87.733,262.280 88.041 C 262.668 88.348,262.016 87.475,260.832 86.100 C 259.649 84.725,258.600 83.600,258.503 83.600 C 258.405 83.600,259.057 84.473,259.950 85.541 M167.200 85.224 C 165.339 86.204,166.162 86.184,168.200 85.200 C 169.080 84.775,169.530 84.441,169.200 84.457 C 168.870 84.473,167.970 84.818,167.200 85.224 M124.392 89.500 L 120.600 93.400 124.500 89.608 C 126.645 87.522,128.400 85.767,128.400 85.708 C 128.400 85.418,127.914 85.878,124.392 89.500 M222.400 86.400 C 223.170 86.822,223.980 87.166,224.200 87.166 C 224.420 87.166,223.970 86.822,223.200 86.400 C 222.430 85.978,221.620 85.634,221.400 85.634 C 221.180 85.634,221.630 85.978,222.400 86.400 M263.917 90.200 C 266.410 93.332,266.844 93.776,265.676 92.000 C 265.026 91.010,264.077 89.840,263.568 89.400 C 262.949 88.865,263.065 89.130,263.917 90.200 M228.800 89.754 C 228.800 89.855,229.982 90.765,231.427 91.775 C 232.872 92.785,233.941 93.428,233.802 93.204 C 233.508 92.728,228.800 89.481,228.800 89.754 M155.544 91.623 C 154.650 92.402,154.646 92.423,155.478 92.020 C 155.960 91.787,156.466 91.417,156.601 91.198 C 156.995 90.562,156.563 90.735,155.544 91.623 M152.573 93.723 C 150.804 95.117,145.286 100.178,146.598 99.204 C 147.039 98.877,148.306 97.797,149.413 96.804 C 150.519 95.812,152.139 94.424,153.013 93.721 C 153.886 93.018,154.510 92.442,154.400 92.442 C 154.290 92.441,153.468 93.018,152.573 93.723 M235.664 95.134 C 235.739 95.327,236.964 96.725,238.387 98.242 C 239.810 99.759,240.717 100.640,240.401 100.200 C 239.618 99.107,235.495 94.698,235.664 95.134 M144.349 101.168 C 144.047 101.591,143.013 102.896,142.052 104.068 C 141.058 105.280,140.885 105.586,141.652 104.777 C 144.357 101.923,145.611 100.400,145.258 100.400 C 145.060 100.400,144.651 100.746,144.349 101.168 M113.200 102.600 C 112.519 103.590,112.052 104.400,112.162 104.400 C 112.272 104.400,112.919 103.590,113.600 102.600 C 114.281 101.610,114.748 100.800,114.638 100.800 C 114.528 100.800,113.881 101.610,113.200 102.600 M274.616 107.000 C 274.978 107.880,275.447 108.780,275.658 109.000 C 275.869 109.220,275.746 108.680,275.384 107.800 C 275.022 106.920,274.553 106.020,274.342 105.800 C 274.131 105.580,274.254 106.120,274.616 107.000 M110.153 106.900 C 108.776 109.236,108.686 109.435,109.387 108.600 C 110.200 107.632,110.900 106.400,110.638 106.400 C 110.533 106.400,110.315 106.625,110.153 106.900 M139.119 107.700 C 137.957 109.248,137.496 110.000,137.709 110.000 C 137.794 110.000,138.446 109.190,139.157 108.200 C 140.632 106.146,140.600 105.727,139.119 107.700 M107.639 111.024 C 107.177 111.807,106.980 112.336,107.202 112.199 C 107.636 111.931,108.934 109.600,108.650 109.600 C 108.556 109.600,108.101 110.241,107.639 111.024 M277.679 113.609 C 278.139 114.715,278.583 115.550,278.667 115.466 C 278.855 115.278,277.304 111.600,277.036 111.600 C 276.931 111.600,277.220 112.504,277.679 113.609 M135.457 113.300 L 134.742 114.600 135.571 113.656 C 136.287 112.840,136.650 112.000,136.286 112.000 C 136.224 112.000,135.851 112.585,135.457 113.300 M105.287 115.089 C 104.565 116.309,104.032 117.366,104.104 117.437 C 104.175 117.508,104.828 116.572,105.556 115.356 C 106.283 114.140,106.815 113.083,106.739 113.007 C 106.663 112.932,106.009 113.868,105.287 115.089 M246.812 113.600 C 246.812 113.930,246.987 114.470,247.200 114.800 C 247.545 115.333,247.588 115.333,247.588 114.800 C 247.588 114.470,247.413 113.930,247.200 113.600 C 246.855 113.067,246.812 113.067,246.812 113.600 M133.400 116.800 C 132.843 117.900,132.477 118.800,132.587 118.800 C 132.697 118.800,133.243 117.900,133.800 116.800 C 134.357 115.700,134.723 114.800,134.613 114.800 C 134.503 114.800,133.957 115.700,133.400 116.800 M280.430 120.800 C 280.428 121.376,281.557 123.666,281.586 123.146 C 281.594 123.006,281.337 122.286,281.016 121.546 C 280.694 120.806,280.431 120.470,280.430 120.800 M248.890 129.671 C 248.809 136.405,248.731 137.159,248.100 137.324 C 247.444 137.496,247.445 137.510,248.113 137.554 C 249.176 137.623,249.229 137.185,249.100 129.387 L 248.980 122.200 248.890 129.671 M130.065 123.817 C 129.809 124.378,129.607 125.054,129.616 125.319 C 129.624 125.583,129.897 125.188,130.222 124.439 C 130.905 122.865,130.761 122.290,130.065 123.817 M100.672 124.619 C 99.732 126.589,99.864 126.924,100.847 125.062 C 101.293 124.216,101.587 123.454,101.501 123.367 C 101.414 123.281,101.041 123.844,100.672 124.619 M282.056 125.600 C 282.056 125.930,282.211 126.560,282.400 127.000 C 282.617 127.504,282.744 127.578,282.744 127.200 C 282.744 126.870,282.589 126.240,282.400 125.800 C 282.183 125.296,282.056 125.222,282.056 125.600 M128.865 127.017 C 128.195 128.488,128.323 128.802,129.047 127.465 C 129.386 126.840,129.588 126.254,129.496 126.163 C 129.405 126.071,129.121 126.456,128.865 127.017 M282.837 128.200 C 282.823 128.420,283.159 129.680,283.584 131.000 C 284.009 132.320,284.353 133.040,284.347 132.600 C 284.337 131.757,282.880 127.512,282.837 128.200 M284.433 134.400 C 284.421 134.730,284.667 135.810,284.979 136.800 C 285.291 137.790,285.556 138.330,285.567 138.000 C 285.579 137.670,285.333 136.590,285.021 135.600 C 284.709 134.610,284.444 134.070,284.433 134.400 M96.491 135.700 C 95.810 137.584,95.904 138.094,96.626 136.430 C 96.953 135.677,97.166 134.899,97.101 134.702 C 97.035 134.505,96.760 134.954,96.491 135.700 M125.849 136.215 C 125.712 136.573,125.615 137.166,125.634 137.533 C 125.653 137.900,125.827 137.669,126.021 137.020 C 126.398 135.758,126.265 135.133,125.849 136.215 M148.392 138.210 C 148.114 138.545,148.002 138.935,148.143 139.076 C 148.284 139.218,148.400 139.118,148.400 138.854 C 148.400 138.590,148.805 138.211,149.300 138.012 C 149.909 137.768,149.990 137.643,149.549 137.625 C 149.191 137.611,148.670 137.874,148.392 138.210 M125.110 140.200 C 124.970 140.860,124.751 141.760,124.622 142.200 C 124.494 142.640,124.670 142.394,125.014 141.653 C 125.359 140.912,125.578 140.012,125.503 139.653 C 125.423 139.275,125.257 139.506,125.110 140.200 M286.087 141.800 C 286.091 142.240,286.232 143.140,286.400 143.800 C 286.674 144.878,286.706 144.898,286.713 144.000 C 286.717 143.450,286.576 142.550,286.400 142.000 C 286.149 141.216,286.081 141.173,286.087 141.800 M124.101 145.800 C 124.105 146.680,124.187 146.993,124.283 146.495 C 124.379 145.998,124.375 145.278,124.275 144.895 C 124.175 144.513,124.096 144.920,124.101 145.800 M93.829 145.829 C 93.681 146.415,93.638 146.972,93.732 147.066 C 93.827 147.160,94.024 146.758,94.171 146.171 C 94.319 145.585,94.362 145.028,94.268 144.934 C 94.173 144.840,93.976 145.242,93.829 145.829 M286.893 146.800 C 286.893 147.570,286.975 147.885,287.076 147.500 C 287.176 147.115,287.176 146.485,287.076 146.100 C 286.975 145.715,286.893 146.030,286.893 146.800 M145.822 148.222 C 145.672 149.025,145.628 149.762,145.726 149.860 C 145.824 149.957,146.027 149.381,146.178 148.578 C 146.328 147.775,146.372 147.038,146.274 146.940 C 146.176 146.843,145.973 147.419,145.822 148.222 M93.293 149.200 C 93.293 149.970,93.375 150.285,93.476 149.900 C 93.576 149.515,93.576 148.885,93.476 148.500 C 93.375 148.115,93.293 148.430,93.293 149.200 M123.649 148.600 C 123.616 149.040,123.496 149.850,123.383 150.400 L 123.177 151.400 123.606 150.419 C 123.842 149.879,123.961 149.069,123.872 148.619 C 123.713 147.821,123.707 147.821,123.649 148.600 M287.287 149.400 C 287.291 149.840,287.432 150.740,287.600 151.400 C 287.874 152.478,287.906 152.498,287.913 151.600 C 287.917 151.050,287.776 150.150,287.600 149.600 C 287.349 148.816,287.281 148.773,287.287 149.400 M145.309 152.400 C 145.309 153.390,145.387 153.795,145.482 153.300 C 145.578 152.805,145.578 151.995,145.482 151.500 C 145.387 151.005,145.309 151.410,145.309 152.400 M122.934 155.200 C 122.934 156.850,123.005 157.525,123.091 156.700 C 123.178 155.875,123.178 154.525,123.091 153.700 C 123.005 152.875,122.934 153.550,122.934 155.200 M288.072 154.680 C 288.020 156.186,287.807 156.873,287.300 157.168 C 286.915 157.392,286.803 157.581,287.051 157.588 C 287.966 157.613,288.444 156.438,288.295 154.531 L 288.144 152.600 288.072 154.680 M92.101 155.800 C 92.105 156.680,92.187 156.993,92.283 156.495 C 92.379 155.998,92.375 155.278,92.275 154.895 C 92.175 154.513,92.096 154.920,92.101 155.800 M91.709 162.400 C 91.709 163.390,91.787 163.795,91.882 163.300 C 91.978 162.805,91.978 161.995,91.882 161.500 C 91.787 161.005,91.709 161.410,91.709 162.400 M122.501 164.600 C 122.505 165.480,122.587 165.793,122.683 165.295 C 122.779 164.798,122.775 164.078,122.675 163.695 C 122.575 163.313,122.496 163.720,122.501 164.600 M91.359 171.200 C 91.359 174.390,91.421 175.695,91.497 174.100 C 91.573 172.505,91.573 169.895,91.497 168.300 C 91.421 166.705,91.359 168.010,91.359 171.200 M122.934 175.600 C 122.934 177.250,123.005 177.925,123.091 177.100 C 123.178 176.275,123.178 174.925,123.091 174.100 C 123.005 173.275,122.934 173.950,122.934 175.600 M91.709 180.000 C 91.709 180.990,91.787 181.395,91.882 180.900 C 91.978 180.405,91.978 179.595,91.882 179.100 C 91.787 178.605,91.709 179.010,91.709 180.000 M123.287 180.800 C 123.283 181.350,123.424 182.250,123.600 182.800 C 124.031 184.144,124.031 182.692,123.600 181.000 C 123.326 179.922,123.294 179.902,123.287 180.800 M124.093 185.600 C 124.093 186.370,124.175 186.685,124.276 186.300 C 124.376 185.915,124.376 185.285,124.276 184.900 C 124.175 184.515,124.093 184.830,124.093 185.600 M92.109 186.800 C 92.109 187.790,92.187 188.195,92.282 187.700 C 92.378 187.205,92.378 186.395,92.282 185.900 C 92.187 185.405,92.109 185.810,92.109 186.800 M124.650 190.400 C 124.790 191.170,125.061 192.160,125.254 192.600 C 125.494 193.149,125.524 192.961,125.350 192.000 C 125.210 191.230,124.939 190.240,124.746 189.800 C 124.506 189.251,124.476 189.439,124.650 190.400 M126.244 197.400 C 126.573 198.871,126.802 199.190,126.794 198.167 C 126.791 197.745,126.605 197.130,126.382 196.800 C 126.085 196.362,126.048 196.524,126.244 197.400 M128.428 205.400 C 128.428 205.620,128.686 206.250,129.000 206.800 C 129.314 207.350,129.572 207.620,129.572 207.400 C 129.572 207.180,129.314 206.550,129.000 206.000 C 128.686 205.450,128.428 205.180,128.428 205.400 M133.400 217.600 C 133.957 218.700,134.503 219.600,134.613 219.600 C 134.723 219.600,134.357 218.700,133.800 217.600 C 133.243 216.500,132.697 215.600,132.587 215.600 C 132.477 215.600,132.843 216.500,133.400 217.600 M134.800 220.098 C 134.800 220.500,138.048 225.983,138.424 226.215 C 138.621 226.337,137.956 225.033,136.947 223.318 C 135.028 220.059,134.800 219.718,134.800 220.098 M278.669 227.500 L 287.538 227.615 287.938 228.708 C 288.157 229.308,288.351 229.563,288.368 229.274 C 288.489 227.259,288.172 227.194,278.686 227.292 L 269.800 227.384 278.669 227.500 M287.265 231.017 C 286.595 232.488,286.723 232.802,287.447 231.465 C 287.786 230.840,287.988 230.254,287.896 230.163 C 287.805 230.071,287.521 230.456,287.265 231.017 M263.218 235.030 C 261.635 237.137,260.038 239.178,259.670 239.566 C 259.301 239.955,258.460 240.885,257.800 241.635 L 256.600 242.997 257.746 241.999 C 259.002 240.903,262.573 236.593,264.951 233.300 C 267.554 229.697,266.245 231.004,263.218 235.030 M106.400 231.889 C 106.400 232.121,106.771 232.736,107.224 233.256 L 108.047 234.200 107.345 233.000 C 106.420 231.421,106.400 231.397,106.400 231.889 M144.000 233.800 C 144.746 234.570,145.447 235.200,145.557 235.200 C 145.667 235.200,145.146 234.570,144.400 233.800 C 143.654 233.030,142.953 232.400,142.843 232.400 C 142.733 232.400,143.254 233.030,144.000 233.800 M108.749 235.800 C 108.965 236.240,109.434 236.960,109.793 237.400 L 110.444 238.200 110.051 237.400 C 109.835 236.960,109.366 236.240,109.007 235.800 L 108.356 235.000 108.749 235.800 M149.564 239.527 C 154.157 244.008,164.361 251.372,165.038 250.695 C 165.114 250.619,163.994 249.877,162.549 249.046 C 159.262 247.155,154.362 243.653,152.000 241.506 C 151.010 240.606,149.197 238.954,147.971 237.835 C 146.745 236.716,147.462 237.477,149.564 239.527 M281.952 240.900 C 281.690 241.395,281.189 242.243,280.838 242.785 C 280.445 243.391,280.394 243.649,280.706 243.457 C 281.229 243.135,282.967 240.000,282.622 240.000 C 282.515 240.000,282.214 240.405,281.952 240.900 M114.000 243.600 C 114.697 244.480,115.357 245.200,115.467 245.200 C 115.577 245.200,115.097 244.480,114.400 243.600 C 113.703 242.720,113.043 242.000,112.933 242.000 C 112.823 242.000,113.303 242.720,114.000 243.600 M255.200 243.932 C 254.294 244.815,254.283 244.864,255.078 244.451 C 255.560 244.201,256.073 243.805,256.218 243.571 C 256.710 242.775,256.202 242.955,255.200 243.932 M116.800 247.200 C 117.497 248.080,118.157 248.800,118.267 248.800 C 118.377 248.800,117.897 248.080,117.200 247.200 C 116.503 246.320,115.843 245.600,115.733 245.600 C 115.623 245.600,116.103 246.320,116.800 247.200 M276.627 248.900 C 275.586 250.275,275.303 250.770,275.997 250.000 C 277.445 248.393,278.934 246.400,278.686 246.400 C 278.594 246.400,277.667 247.525,276.627 248.900 M249.400 248.635 L 248.200 249.666 249.500 248.806 C 250.215 248.333,250.800 247.868,250.800 247.773 C 250.800 247.473,250.631 247.578,249.400 248.635 M120.615 251.700 C 121.881 253.075,123.195 254.363,123.534 254.562 C 123.874 254.762,122.915 253.637,121.404 252.062 C 118.020 248.538,117.473 248.286,120.615 251.700 M242.700 252.425 C 240.995 253.297,239.600 254.100,239.600 254.209 C 239.600 254.319,241.040 253.685,242.800 252.800 C 244.560 251.915,246.000 251.103,246.000 250.996 C 246.000 250.726,246.150 250.661,242.700 252.425 M267.800 258.861 C 264.720 261.940,260.355 265.812,258.100 267.465 C 255.845 269.118,254.000 270.560,254.000 270.669 C 254.000 270.861,256.290 269.265,259.960 266.515 C 263.420 263.923,274.608 252.967,273.527 253.231 C 273.457 253.248,270.880 255.781,267.800 258.861 M235.800 255.414 C 234.185 256.154,235.151 256.155,236.854 255.416 C 237.594 255.094,237.930 254.839,237.600 254.848 C 237.270 254.857,236.460 255.112,235.800 255.414 M124.357 255.715 C 125.023 256.557,129.600 260.558,129.600 260.298 C 129.600 260.198,128.295 258.968,126.700 257.563 C 125.105 256.159,124.051 255.328,124.357 255.715 M180.600 257.014 C 181.260 257.317,182.070 257.558,182.400 257.552 C 182.730 257.545,182.370 257.297,181.600 257.000 C 179.774 256.297,179.055 256.307,180.600 257.014 M230.400 257.200 C 229.576 257.464,229.541 257.526,230.200 257.554 C 230.640 257.573,231.270 257.413,231.600 257.200 C 232.301 256.747,231.814 256.747,230.400 257.200 M184.400 258.000 C 184.950 258.176,185.760 258.320,186.200 258.320 C 186.833 258.320,186.792 258.254,186.000 258.000 C 185.450 257.824,184.640 257.680,184.200 257.680 C 183.567 257.680,183.608 257.746,184.400 258.000 M226.600 258.019 C 226.042 258.271,226.285 258.307,227.400 258.138 C 228.280 258.004,229.075 257.828,229.167 257.747 C 229.510 257.444,227.368 257.671,226.600 258.019 M190.800 259.200 C 191.350 259.376,192.430 259.517,193.200 259.514 L 194.600 259.508 193.000 259.177 C 190.863 258.735,189.396 258.750,190.800 259.200 M219.400 259.200 L 217.800 259.486 219.200 259.496 C 219.970 259.501,221.140 259.368,221.800 259.200 C 223.428 258.786,221.713 258.786,219.400 259.200 M196.105 259.887 C 196.714 259.979,197.614 259.977,198.105 259.882 C 198.597 259.787,198.100 259.711,197.000 259.714 C 195.900 259.717,195.497 259.795,196.105 259.887 M214.300 259.882 C 214.795 259.978,215.605 259.978,216.100 259.882 C 216.595 259.787,216.190 259.709,215.200 259.709 C 214.210 259.709,213.805 259.787,214.300 259.882 M202.900 260.297 C 204.605 260.372,207.395 260.372,209.100 260.297 C 210.805 260.222,209.410 260.161,206.000 260.161 C 202.590 260.161,201.195 260.222,202.900 260.297 M132.600 263.021 C 134.039 264.323,138.054 267.282,139.600 268.180 C 140.771 268.860,139.746 268.042,135.400 264.828 C 132.980 263.038,131.720 262.225,132.600 263.021 M140.704 268.885 C 141.176 269.453,144.400 271.373,144.400 271.085 C 144.400 270.994,143.467 270.340,142.327 269.631 C 141.187 268.922,140.457 268.587,140.704 268.885 M250.319 272.701 C 248.625 273.730,247.299 274.632,247.373 274.706 C 247.529 274.863,253.600 271.221,253.600 270.970 C 253.600 270.708,253.594 270.711,250.319 272.701 M145.000 271.484 C 145.220 271.709,146.660 272.575,148.200 273.409 C 149.740 274.243,150.820 274.741,150.600 274.516 C 150.380 274.291,148.940 273.425,147.400 272.591 C 145.860 271.757,144.780 271.259,145.000 271.484 M152.400 275.600 C 153.170 276.022,153.980 276.366,154.200 276.366 C 154.420 276.366,153.970 276.022,153.200 275.600 C 152.430 275.178,151.620 274.834,151.400 274.834 C 151.180 274.834,151.630 275.178,152.400 275.600 M243.600 276.400 C 241.950 277.258,240.739 277.969,240.910 277.980 C 241.335 278.007,246.800 275.238,246.800 274.995 C 246.800 274.725,246.932 274.667,243.600 276.400 M155.600 277.000 C 156.150 277.314,156.780 277.572,157.000 277.572 C 157.220 277.572,156.950 277.314,156.400 277.000 C 155.850 276.686,155.220 276.428,155.000 276.428 C 154.780 276.428,155.050 276.686,155.600 277.000 M158.400 278.200 C 158.950 278.514,159.580 278.772,159.800 278.772 C 160.020 278.772,159.750 278.514,159.200 278.200 C 158.650 277.886,158.020 277.628,157.800 277.628 C 157.580 277.628,157.850 277.886,158.400 278.200 M161.200 279.400 C 161.750 279.714,162.470 279.971,162.800 279.970 C 163.130 279.969,162.794 279.706,162.054 279.384 C 160.351 278.645,159.894 278.653,161.200 279.400 M236.800 279.400 C 236.250 279.714,235.980 279.972,236.200 279.972 C 236.420 279.972,237.050 279.714,237.600 279.400 C 238.150 279.086,238.420 278.828,238.200 278.828 C 237.980 278.828,237.350 279.086,236.800 279.400 M166.600 281.200 C 167.700 281.606,168.870 281.938,169.200 281.938 C 169.530 281.938,168.900 281.606,167.800 281.200 C 166.700 280.794,165.530 280.462,165.200 280.462 C 164.870 280.462,165.500 280.794,166.600 281.200 M170.600 282.400 C 171.040 282.589,171.670 282.744,172.000 282.744 C 172.378 282.744,172.304 282.617,171.800 282.400 C 171.360 282.211,170.730 282.056,170.400 282.056 C 170.022 282.056,170.096 282.183,170.600 282.400 M225.200 283.000 C 223.330 283.508,222.040 283.941,222.333 283.962 C 222.936 284.005,229.309 282.423,229.567 282.166 C 229.900 281.834,228.530 282.096,225.200 283.000 M174.600 283.409 C 175.700 283.692,176.960 283.919,177.400 283.914 C 177.840 283.909,177.300 283.674,176.200 283.391 C 175.100 283.108,173.840 282.881,173.400 282.886 C 172.960 282.891,173.500 283.126,174.600 283.409 M217.700 284.676 C 218.085 284.776,218.715 284.776,219.100 284.676 C 219.485 284.575,219.170 284.493,218.400 284.493 C 217.630 284.493,217.315 284.575,217.700 284.676 M184.400 285.220 C 185.390 285.397,186.830 285.530,187.600 285.517 C 188.745 285.497,188.635 285.436,187.000 285.182 C 184.253 284.754,181.969 284.788,184.400 285.220 M213.600 285.200 C 212.250 285.484,212.243 285.495,213.400 285.500 C 214.060 285.503,215.140 285.368,215.800 285.200 C 217.460 284.778,215.607 284.778,213.600 285.200 M190.505 285.887 C 191.114 285.979,192.014 285.977,192.505 285.882 C 192.997 285.787,192.500 285.711,191.400 285.714 C 190.300 285.717,189.897 285.795,190.505 285.887 M207.907 285.890 C 208.626 285.979,209.706 285.977,210.307 285.886 C 210.908 285.795,210.320 285.722,209.000 285.724 C 207.680 285.726,207.188 285.801,207.907 285.890 M196.719 286.298 C 198.544 286.372,201.424 286.372,203.119 286.297 C 204.814 286.222,203.320 286.161,199.800 286.162 C 196.280 286.162,194.894 286.224,196.719 286.298 M152.712 316.012 C 140.618 318.050,133.784 331.110,138.225 343.700 C 138.593 344.745,139.053 345.600,139.247 345.600 C 139.441 345.600,139.600 345.869,139.600 346.199 C 139.600 346.528,140.827 348.103,142.326 349.699 L 145.052 352.600 144.973 357.472 C 144.885 362.933,145.318 364.254,147.510 365.224 C 148.232 365.544,148.873 366.247,149.156 367.029 C 151.245 372.806,159.281 373.597,163.083 368.400 C 163.807 367.410,165.289 365.692,166.376 364.582 L 168.352 362.564 168.252 357.492 L 168.151 352.421 170.098 350.510 C 179.422 341.360,178.601 327.628,168.231 319.274 C 164.842 316.544,158.040 315.114,152.712 316.012 M161.414 317.020 C 171.313 319.599,178.775 331.785,175.400 339.862 C 175.070 340.651,174.800 341.564,174.800 341.888 C 174.800 343.560,172.407 347.304,169.484 350.203 L 167.353 352.317 167.436 357.406 L 167.519 362.495 165.607 364.348 C 164.556 365.366,163.236 366.943,162.673 367.852 C 160.039 372.108,153.020 372.203,150.600 368.016 C 150.160 367.254,148.841 365.708,147.668 364.579 C 145.578 362.567,145.537 362.484,145.602 360.363 C 145.638 359.173,145.653 356.849,145.634 355.198 L 145.600 352.197 143.100 349.596 C 129.315 335.260,142.360 312.057,161.414 317.020 M152.000 319.750 C 139.751 323.122,135.544 338.305,144.273 347.637 C 146.560 350.082,149.531 351.600,152.030 351.600 C 155.349 351.600,155.751 349.617,152.648 348.543 C 148.536 347.120,146.181 343.558,146.491 339.231 C 146.696 336.367,146.977 335.776,150.027 331.800 C 152.062 329.147,153.200 326.624,153.200 324.766 C 153.200 320.951,155.522 321.188,159.775 325.436 C 168.801 334.450,169.257 345.341,160.747 348.648 C 157.118 350.058,157.352 351.200,161.269 351.200 C 167.560 351.200,173.399 343.724,173.296 335.800 C 173.153 324.792,162.593 316.833,152.000 319.750 M163.600 321.553 C 173.610 326.547,175.861 339.372,168.084 347.095 C 165.240 349.919,164.081 350.468,161.282 350.312 C 159.655 350.222,159.230 350.094,159.800 349.867 C 167.345 346.863,169.642 340.393,165.861 332.800 C 161.375 323.793,152.800 317.862,152.800 323.767 C 152.800 325.486,151.762 328.660,150.915 329.529 C 150.632 329.819,150.396 330.179,150.391 330.329 C 150.386 330.478,149.770 331.279,149.022 332.109 C 143.129 338.651,145.360 346.922,153.800 349.824 C 154.509 350.067,154.464 350.139,153.400 350.458 C 145.001 352.971,137.153 338.546,141.759 329.061 C 145.604 321.144,155.774 317.648,163.600 321.553 M73.023 321.289 C 72.261 322.376,72.064 365.825,72.814 367.226 C 73.204 367.954,73.735 368.000,81.800 368.000 C 91.664 368.000,91.200 368.192,91.200 364.103 C 91.200 360.541,90.814 360.223,86.332 360.086 C 80.257 359.902,80.800 360.495,80.800 354.035 C 80.800 347.582,80.481 348.000,85.410 348.000 C 89.484 348.000,90.000 347.538,90.000 343.885 C 90.000 340.228,89.760 340.001,85.886 339.995 C 80.488 339.986,80.800 340.309,80.800 334.727 C 80.800 328.267,80.699 328.400,85.614 328.400 C 90.618 328.400,91.200 327.992,91.200 324.489 C 91.200 320.350,91.314 320.400,81.800 320.400 C 73.827 320.400,73.632 320.420,73.023 321.289 M89.987 321.784 C 92.527 324.845,90.589 327.599,85.891 327.605 C 79.945 327.614,80.400 327.083,80.400 334.023 C 80.400 340.874,80.069 340.384,84.904 340.673 C 89.147 340.926,89.600 341.235,89.600 343.876 C 89.600 346.609,88.725 347.200,84.680 347.200 C 80.261 347.200,80.400 346.972,80.400 354.237 C 80.400 361.325,80.004 360.800,85.356 360.800 C 90.079 360.800,90.548 361.104,90.578 364.183 C 90.611 367.573,90.538 367.600,81.538 367.600 C 74.523 367.600,74.001 367.549,73.614 366.826 C 72.984 365.649,73.047 322.313,73.680 321.680 C 74.445 320.915,89.345 321.010,89.987 321.784 M154.218 330.038 C 152.960 332.444,153.082 333.564,154.822 335.600 C 158.049 339.375,158.400 339.535,158.400 337.232 C 158.400 334.415,156.322 328.000,155.409 328.000 C 155.340 328.000,154.804 328.917,154.218 330.038 M157.165 333.392 C 157.921 337.485,157.435 337.905,155.300 335.001 C 153.826 332.996,153.712 332.167,154.680 330.480 L 155.360 329.295 156.045 330.166 C 156.421 330.644,156.925 332.096,157.165 333.392 M192.853 331.475 C 186.305 333.226,182.624 339.371,184.632 345.200 C 186.113 349.500,188.068 350.975,196.870 354.431 C 199.704 355.544,201.089 356.803,201.420 358.568 C 202.765 365.737,191.516 366.636,188.507 359.600 C 186.191 354.184,183.325 354.535,183.808 360.176 C 184.330 366.269,185.602 367.467,192.584 368.443 C 210.489 370.948,216.057 352.058,199.200 346.002 C 191.602 343.272,189.091 340.426,191.657 337.451 C 194.452 334.209,200.496 335.367,203.291 339.680 C 205.573 343.203,207.200 342.660,207.200 338.377 C 207.200 333.568,206.469 332.773,200.935 331.564 C 196.935 330.690,195.837 330.678,192.853 331.475 M203.382 332.886 C 205.482 333.658,206.292 334.903,206.580 337.800 C 206.926 341.272,205.184 342.458,203.986 339.566 C 201.345 333.189,190.000 333.483,190.000 339.928 C 190.000 342.081,193.292 344.748,197.800 346.246 C 208.205 349.704,211.683 357.832,205.627 364.537 C 201.265 369.368,186.548 369.050,185.231 364.097 C 183.368 357.091,184.833 353.830,187.417 359.235 C 190.443 365.567,199.029 367.440,201.632 362.337 C 203.712 358.260,201.822 355.488,195.218 352.929 C 186.427 349.521,183.510 345.442,185.347 339.122 C 187.096 333.108,195.799 330.098,203.382 332.886 M161.280 334.080 C 160.997 334.363,160.800 335.726,160.800 337.407 C 160.800 338.972,160.607 341.299,160.370 342.577 C 159.816 345.573,160.240 346.084,162.182 344.763 C 163.962 343.551,164.559 341.813,164.300 338.588 C 164.007 334.942,162.568 332.792,161.280 334.080 M163.778 339.456 C 163.778 341.969,163.649 342.496,162.819 343.380 C 161.501 344.783,160.614 344.744,161.005 343.300 C 161.168 342.695,161.376 340.670,161.466 338.800 C 161.682 334.320,161.801 334.040,162.894 335.429 C 163.621 336.353,163.778 337.066,163.778 339.456 M99.600 335.466 C 98.032 336.138,95.600 338.305,95.600 339.029 C 95.600 339.289,95.330 339.726,95.000 340.000 C 94.670 340.274,94.400 340.943,94.400 341.487 C 94.400 342.032,94.116 343.455,93.768 344.649 C 92.492 349.039,93.350 358.392,95.397 362.400 C 98.239 367.966,106.663 368.778,107.801 363.595 C 108.212 361.724,107.267 360.221,105.597 360.092 C 102.898 359.883,102.514 359.655,101.585 357.704 C 98.705 351.654,100.835 341.683,104.908 342.152 C 107.336 342.432,108.551 340.281,107.598 337.393 C 106.811 335.009,102.875 334.061,99.600 335.466 M115.872 335.902 C 114.009 336.902,111.600 339.716,111.600 340.892 C 111.600 341.193,111.407 341.633,111.172 341.868 C 109.728 343.312,109.872 357.802,111.358 360.600 C 111.708 361.260,112.000 361.980,112.005 362.200 C 112.089 365.503,120.209 368.117,124.124 366.101 C 130.303 362.920,132.129 345.961,127.097 338.488 C 124.725 334.965,119.753 333.819,115.872 335.902 M105.200 335.957 C 107.615 336.626,107.775 341.508,105.375 341.297 C 101.366 340.944,100.199 343.088,100.203 350.800 C 100.207 358.491,101.486 361.201,104.879 360.703 C 107.062 360.383,107.977 364.125,106.098 365.685 C 104.889 366.688,100.357 366.340,98.480 365.100 C 92.514 361.155,92.006 342.008,97.742 337.248 C 99.366 335.900,102.831 335.300,105.200 335.957 M123.107 336.219 C 126.123 337.479,127.674 339.689,128.575 344.007 C 129.261 347.295,129.413 354.811,128.831 356.640 C 128.628 357.278,128.358 358.432,128.231 359.205 C 127.074 366.237,118.146 368.789,113.676 363.365 C 109.451 358.240,109.454 343.756,113.680 338.629 C 115.962 335.861,119.864 334.864,123.107 336.219 M149.186 337.433 C 147.982 340.241,148.594 342.282,151.368 344.718 C 156.034 348.815,159.118 345.354,155.307 340.297 C 151.145 334.774,150.462 334.455,149.186 337.433 M152.011 337.102 C 156.878 342.904,157.529 344.275,155.848 345.174 C 153.408 346.480,149.608 343.134,149.603 339.674 C 149.598 336.779,150.728 335.572,152.011 337.102 M265.000 338.313 C 264.026 338.524,263.096 339.468,262.251 341.102 C 261.488 342.576,259.771 344.000,258.755 344.000 C 256.495 344.000,256.619 347.749,258.890 348.071 C 259.795 348.199,259.801 348.243,260.000 356.400 C 260.206 364.836,260.366 365.695,262.038 367.301 C 265.351 370.481,275.545 367.234,273.608 363.615 C 273.081 362.630,273.178 362.634,270.724 363.500 C 267.716 364.561,267.600 364.268,267.600 355.566 C 267.600 347.712,267.495 348.000,270.363 348.000 C 272.064 348.000,273.600 346.714,273.600 345.288 C 273.600 344.160,272.479 343.600,270.218 343.600 C 268.196 343.600,267.884 343.233,267.408 340.305 C 267.151 338.719,266.316 338.028,265.000 338.313 M266.557 339.833 C 266.691 340.181,266.800 341.175,266.800 342.043 C 266.800 343.846,267.649 344.400,270.412 344.400 C 271.528 344.400,272.086 344.614,272.373 345.150 C 272.963 346.253,271.727 347.200,269.697 347.200 C 266.885 347.200,266.800 347.455,266.800 355.829 C 266.800 364.112,267.142 365.210,269.539 364.615 C 272.964 363.765,273.658 363.968,272.580 365.507 C 271.030 367.720,265.645 368.710,263.277 367.217 C 260.826 365.673,260.419 364.006,260.409 355.487 L 260.400 347.973 258.983 347.137 C 257.284 346.134,257.363 345.675,259.431 344.535 C 261.116 343.606,262.800 342.056,262.800 341.434 C 262.800 339.906,266.053 338.520,266.557 339.833 M118.490 341.602 C 115.922 343.994,115.795 357.218,118.313 360.100 C 120.401 362.491,122.491 360.270,123.143 354.969 C 124.312 345.453,121.874 338.449,118.490 341.602 M121.578 342.576 C 123.498 344.620,122.842 359.152,120.800 359.800 C 118.585 360.503,117.802 359.077,117.397 353.600 C 116.745 344.784,118.731 339.546,121.578 342.576 M242.200 343.541 C 238.143 345.211,236.604 347.588,236.871 351.772 C 237.132 355.875,238.566 357.257,245.077 359.679 C 247.969 360.754,248.816 361.905,247.827 363.414 C 246.501 365.438,241.375 364.753,240.410 362.423 C 238.811 358.563,236.000 358.809,236.000 362.810 C 236.000 366.627,237.093 367.687,241.762 368.394 C 256.232 370.588,260.802 355.570,246.754 351.992 C 243.339 351.122,242.006 349.083,243.886 347.604 C 245.959 345.973,247.955 346.864,250.519 350.563 C 252.068 352.798,253.600 351.618,253.600 348.190 C 253.600 343.791,247.569 341.332,242.200 343.541 M284.800 343.287 C 279.306 345.666,276.974 348.012,275.470 352.675 C 271.758 364.177,284.199 373.016,295.104 366.625 C 300.094 363.700,299.047 360.128,293.923 362.600 C 289.578 364.696,285.095 363.412,283.827 359.706 C 282.863 356.892,283.601 356.400,288.786 356.400 C 298.220 356.400,299.303 355.856,298.395 351.578 C 297.830 348.912,296.173 345.994,294.665 345.006 C 291.788 343.121,287.079 342.300,284.800 343.287 M308.692 343.042 C 308.559 343.174,306.967 343.449,305.153 343.652 C 300.425 344.181,299.457 345.397,302.300 347.236 L 303.800 348.206 303.914 355.603 C 304.047 364.244,304.011 364.470,302.416 365.072 C 301.155 365.548,300.681 367.232,301.642 367.826 C 302.265 368.211,312.412 368.297,313.500 367.927 C 314.731 367.507,314.629 366.632,313.173 365.109 L 311.946 363.825 312.073 357.744 C 312.226 350.402,313.922 347.744,317.455 349.309 C 319.484 350.207,319.452 364.192,317.419 365.119 C 316.448 365.561,315.830 367.448,316.517 367.873 C 317.129 368.251,327.289 368.271,328.100 367.896 C 329.173 367.399,328.936 365.897,327.600 364.725 L 326.400 363.672 326.402 358.936 C 326.406 351.953,327.114 350.089,330.069 349.282 C 333.012 348.479,333.200 348.955,333.200 357.195 L 333.200 364.346 332.000 365.200 C 330.573 366.216,330.433 367.490,331.700 367.938 C 332.745 368.308,343.352 368.200,343.978 367.813 C 344.764 367.328,344.406 366.022,343.300 365.337 C 341.235 364.058,341.200 363.911,341.200 356.374 C 341.200 346.956,340.592 345.156,336.867 343.548 C 334.002 342.311,330.809 342.975,327.918 345.408 C 326.430 346.660,325.972 346.652,324.770 345.352 C 322.241 342.619,318.937 342.220,315.106 344.187 L 312.412 345.569 311.940 344.685 C 311.130 343.163,309.430 342.303,308.692 343.042 M209.467 343.867 C 208.723 344.611,209.236 346.318,210.341 346.776 C 211.040 347.065,211.803 347.898,212.309 348.924 C 213.169 350.668,215.610 355.974,216.668 358.400 C 217.004 359.170,217.621 360.532,218.040 361.426 C 218.458 362.321,218.800 363.251,218.800 363.493 C 218.800 363.735,218.983 363.994,219.207 364.069 C 220.117 364.372,220.147 368.272,219.253 369.988 C 218.784 370.888,218.400 371.868,218.400 372.166 C 218.400 372.464,217.922 373.021,217.338 373.404 C 216.397 374.020,215.652 374.189,213.140 374.356 C 211.134 374.489,210.026 379.665,211.828 380.485 C 216.113 382.438,219.790 379.012,223.961 369.180 C 227.403 361.068,228.209 359.186,229.178 357.000 C 229.569 356.120,230.489 353.960,231.224 352.200 C 232.857 348.288,233.478 347.375,234.921 346.762 C 235.856 346.365,236.022 346.079,235.921 345.043 L 235.800 343.800 231.658 343.686 C 226.491 343.543,224.954 344.567,227.236 346.633 C 228.168 347.476,228.090 349.351,227.037 351.466 C 226.726 352.090,226.056 353.565,225.547 354.743 C 224.446 357.296,224.377 357.238,221.901 351.678 C 220.231 347.927,220.113 347.285,221.031 346.933 C 221.944 346.582,222.528 344.836,221.960 344.151 C 221.476 343.569,210.025 343.308,209.467 343.867 M249.321 344.159 C 252.201 344.836,252.826 345.584,252.698 348.200 C 252.590 350.407,251.169 351.392,250.614 349.644 C 249.611 346.484,245.081 345.192,242.975 347.465 C 241.364 349.203,242.384 351.096,245.549 352.241 C 253.172 355.000,255.121 357.437,253.797 362.555 C 252.066 369.247,237.646 370.433,236.915 363.943 C 236.503 360.290,237.786 359.513,239.534 362.355 C 241.585 365.688,246.166 366.648,248.300 364.191 C 250.246 361.951,248.676 359.933,243.800 358.406 C 232.024 354.719,237.220 341.311,249.321 344.159 M291.108 344.210 C 294.673 345.269,297.107 348.223,297.791 352.325 C 298.260 355.135,297.556 355.589,292.638 355.650 C 290.417 355.677,287.340 355.812,285.800 355.950 L 283.000 356.200 282.871 357.555 C 282.348 363.030,288.747 366.194,294.391 363.252 C 297.034 361.874,298.345 362.545,296.813 364.492 C 292.389 370.117,280.118 368.676,276.796 362.142 C 272.042 352.789,281.231 341.277,291.108 344.210 M310.571 344.229 C 310.917 344.574,311.200 345.294,311.200 345.829 C 311.200 347.137,312.034 347.070,314.065 345.599 C 317.700 342.965,321.032 343.062,324.054 345.890 L 325.975 347.686 328.020 346.185 C 332.233 343.093,335.834 342.893,338.441 345.609 C 340.278 347.522,340.400 348.222,340.400 356.854 C 340.400 364.515,340.303 364.110,342.522 365.703 C 344.412 367.060,343.007 367.600,337.587 367.600 C 331.931 367.600,331.124 367.192,333.080 365.319 C 334.112 364.331,334.521 351.321,333.576 349.555 C 332.587 347.708,329.631 347.854,327.545 349.852 C 325.135 352.161,324.703 363.603,326.958 365.400 C 329.160 367.154,328.279 367.600,322.613 367.600 C 317.088 367.600,316.593 367.322,318.500 365.295 C 320.093 363.601,320.047 351.135,318.440 349.150 C 317.010 347.384,313.563 348.330,311.982 350.922 C 310.651 353.105,310.816 363.900,312.200 365.200 C 312.750 365.717,313.200 366.468,313.200 366.870 C 313.200 367.909,302.639 368.000,302.241 366.964 C 301.941 366.181,302.265 365.600,303.001 365.600 C 305.846 365.600,305.637 347.500,302.782 346.594 C 300.438 345.850,302.389 344.571,306.600 344.089 C 308.360 343.888,309.832 343.696,309.871 343.662 C 309.911 343.628,310.226 343.883,310.571 344.229 M221.200 345.138 C 221.200 345.544,220.843 346.199,220.406 346.594 C 219.476 347.436,219.599 348.333,221.083 351.556 C 221.630 352.742,222.395 354.455,222.784 355.362 C 224.073 358.370,224.649 358.443,225.827 355.749 C 226.391 354.457,227.084 352.950,227.366 352.400 C 228.696 349.806,228.917 347.812,228.035 346.365 C 226.837 344.399,226.835 344.400,231.000 344.400 C 235.370 344.400,235.725 344.762,233.480 346.927 C 232.492 347.880,231.126 350.614,228.047 357.800 C 225.784 363.080,223.588 368.163,223.167 369.096 C 222.745 370.028,222.400 370.891,222.400 371.012 C 222.400 371.646,219.796 376.730,219.057 377.539 C 216.117 380.759,211.224 380.893,211.729 377.740 C 212.039 375.804,213.232 374.800,215.222 374.800 C 219.250 374.800,221.837 368.110,219.627 363.410 C 218.505 361.022,216.901 357.445,215.161 353.447 C 213.188 348.915,211.712 346.400,211.026 346.400 C 210.516 346.400,210.000 345.579,210.000 344.767 C 210.000 344.562,212.466 344.400,215.600 344.400 C 220.777 344.400,221.200 344.456,221.200 345.138 M283.995 347.606 C 280.943 350.873,282.026 353.200,286.600 353.200 C 290.501 353.200,291.018 352.840,290.684 350.352 C 290.186 346.637,286.365 345.068,283.995 347.606 M287.991 347.195 C 289.786 348.156,291.043 351.668,289.767 352.157 C 287.608 352.986,283.200 352.301,283.200 351.137 C 283.200 348.487,286.039 346.150,287.991 347.195 M149.134 353.869 C 147.703 354.248,147.841 356.156,149.328 356.555 C 154.132 357.844,165.675 356.503,164.997 354.736 C 164.604 353.712,152.273 353.038,149.134 353.869 M164.109 354.964 C 165.226 355.811,163.884 355.989,156.400 355.988 C 149.723 355.988,147.993 355.706,149.452 354.859 C 150.603 354.190,163.208 354.280,164.109 354.964 M149.134 359.469 C 147.703 359.848,147.841 361.756,149.328 362.155 C 152.020 362.877,163.597 362.403,164.464 361.536 L 165.329 360.671 164.420 359.936 C 163.549 359.230,151.433 358.860,149.134 359.469 M163.777 360.247 C 165.996 361.098,163.340 361.600,156.651 361.594 C 149.913 361.588,147.891 361.266,149.200 360.406 C 149.849 359.980,162.716 359.839,163.777 360.247 M152.900 365.065 C 151.651 365.569,153.213 367.628,155.431 368.401 C 157.810 369.230,162.249 366.363,160.400 365.192 C 159.786 364.803,153.801 364.702,152.900 365.065 M160.000 365.938 C 160.000 366.827,158.224 367.800,156.600 367.800 C 154.882 367.800,152.977 366.685,153.433 365.947 C 153.709 365.499,160.000 365.491,160.000 365.938 " stroke="none" fill="#9c9c9d" fill-rule="evenodd"></path><path id="path4" d="M205.077 60.580 C 204.480 61.177,204.400 62.341,204.400 70.384 C 204.400 81.138,204.357 81.011,208.200 81.606 C 209.520 81.811,211.770 82.326,213.200 82.752 C 214.630 83.178,216.520 83.736,217.400 83.991 C 225.941 86.473,236.418 94.286,241.552 102.000 C 247.193 110.477,248.990 117.188,248.996 129.800 L 249.000 137.400 199.200 137.600 C 171.810 137.710,149.197 137.932,148.948 138.094 C 147.915 138.766,146.621 144.283,145.593 152.400 C 145.206 155.456,145.357 156.769,146.154 157.294 C 146.883 157.774,286.326 157.668,287.226 157.186 C 288.444 156.534,288.357 155.343,286.174 142.800 C 284.998 136.042,282.275 125.859,279.865 119.200 C 274.492 104.357,266.749 92.005,256.842 82.474 C 253.563 79.320,248.497 75.215,245.600 73.366 C 244.610 72.733,243.511 72.033,243.159 71.808 C 241.958 71.044,234.203 67.017,233.400 66.741 C 232.960 66.589,231.610 66.076,230.400 65.599 C 221.228 61.991,206.572 59.085,205.077 60.580 M177.200 61.213 C 167.998 63.159,162.172 64.983,156.100 67.819 C 154.945 68.359,152.965 69.282,151.700 69.872 C 130.833 79.594,111.133 101.020,100.831 125.200 C 100.128 126.850,99.394 128.560,99.200 129.000 C 98.830 129.836,96.307 137.694,95.411 140.800 C 94.921 142.496,94.583 144.040,93.006 151.800 C 91.315 160.115,91.307 181.925,92.991 191.200 C 94.258 198.177,94.842 201.054,95.386 203.000 C 95.694 204.100,96.343 206.440,96.828 208.200 C 97.312 209.960,97.955 211.967,98.255 212.660 C 98.555 213.354,98.800 214.070,98.800 214.252 C 98.800 216.139,105.614 230.220,109.612 236.596 C 147.236 296.591,235.035 303.451,276.026 249.600 C 279.192 245.441,282.800 240.002,282.800 239.389 C 282.800 239.305,283.265 238.553,283.833 237.718 C 285.779 234.861,288.081 229.576,287.825 228.556 L 287.585 227.600 278.892 227.605 C 268.138 227.612,268.917 227.375,266.160 231.477 C 255.907 246.728,243.072 255.210,225.200 258.547 C 199.777 263.293,174.859 258.652,157.000 245.845 C 152.949 242.940,148.714 239.095,145.238 235.165 C 142.511 232.082,141.308 230.488,137.567 224.998 C 136.391 223.272,132.674 216.095,131.449 213.184 C 131.036 212.203,130.546 211.040,130.360 210.600 C 129.238 207.947,127.880 203.586,126.562 198.400 C 124.884 191.797,124.735 191.088,124.179 187.000 C 123.880 184.800,123.442 181.650,123.206 180.000 C 122.639 176.037,122.632 154.059,123.197 151.200 C 123.436 149.990,123.803 147.650,124.014 146.000 C 124.719 140.466,126.464 133.863,129.404 125.600 C 134.255 111.964,145.639 97.725,157.765 90.124 C 164.209 86.085,175.660 81.644,179.718 81.609 C 180.372 81.604,181.257 81.179,181.851 80.585 L 182.866 79.570 182.733 70.552 C 182.598 61.380,182.361 60.125,180.824 60.447 C 180.701 60.473,179.070 60.817,177.200 61.213 M209.800 60.966 C 211.120 61.271,213.190 61.648,214.400 61.805 C 216.389 62.062,218.580 62.577,224.600 64.204 C 238.232 67.887,253.290 78.003,262.999 90.000 C 267.947 96.114,271.983 102.700,275.745 110.800 C 277.893 115.424,280.520 122.436,281.740 126.800 C 282.078 128.010,282.725 130.245,283.177 131.767 C 283.630 133.289,284.000 134.943,284.000 135.441 C 284.000 135.940,284.183 136.829,284.406 137.416 C 284.914 138.751,285.820 143.668,286.606 149.345 C 286.937 151.735,287.316 154.122,287.448 154.650 C 288.025 156.949,292.926 156.800,216.571 156.800 C 154.272 156.800,146.402 156.732,146.100 156.193 C 145.297 154.758,147.806 140.680,149.154 139.056 C 149.653 138.455,153.803 138.400,199.049 138.400 C 257.312 138.400,250.010 139.447,249.979 131.100 C 249.922 115.106,246.152 104.847,236.838 95.335 C 232.379 90.782,220.886 83.600,218.058 83.600 C 217.800 83.600,217.277 83.440,216.895 83.243 C 216.029 82.799,210.349 81.306,208.200 80.958 C 205.179 80.468,205.200 80.538,205.200 70.964 C 205.200 59.720,205.124 59.886,209.800 60.966 M182.000 70.752 C 182.000 81.097,182.487 80.194,176.058 81.775 C 173.559 82.389,171.039 83.140,170.458 83.443 C 169.876 83.747,169.165 83.996,168.878 83.998 C 163.633 84.022,146.284 97.056,139.750 105.881 C 135.832 111.174,129.200 122.925,129.200 124.575 C 129.200 124.742,128.952 125.446,128.649 126.140 C 126.820 130.322,124.718 137.996,123.758 144.000 C 123.459 145.870,123.006 148.660,122.753 150.200 C 122.174 153.712,122.155 177.104,122.727 181.000 C 122.953 182.540,123.341 185.240,123.589 187.000 C 125.675 201.834,132.343 219.498,139.292 228.600 C 139.460 228.820,140.451 230.170,141.494 231.600 C 145.772 237.464,156.140 246.765,161.800 249.818 C 162.240 250.055,163.770 250.900,165.200 251.695 C 181.025 260.496,206.331 263.363,227.600 258.765 C 244.980 255.008,256.746 246.652,268.102 230.000 L 269.203 228.385 278.102 228.492 L 287.000 228.600 286.889 229.600 C 286.723 231.089,282.846 238.711,280.753 241.662 C 280.339 242.246,280.000 242.840,280.000 242.983 C 280.000 243.236,275.702 249.202,275.234 249.600 C 275.104 249.710,274.242 250.790,273.318 252.000 C 265.958 261.635,251.675 272.438,239.800 277.352 C 237.820 278.171,235.930 278.983,235.600 279.156 C 234.722 279.617,225.855 282.208,222.600 282.955 C 210.905 285.640,190.334 285.860,179.800 283.413 C 178.480 283.107,176.680 282.740,175.800 282.598 C 170.787 281.788,161.870 278.758,153.200 274.919 C 138.211 268.281,116.316 248.868,110.660 237.200 C 110.321 236.501,109.800 235.646,108.285 233.297 C 106.990 231.291,102.036 221.480,101.578 220.014 C 101.403 219.456,100.871 218.010,100.396 216.800 C 99.921 215.590,99.088 213.250,98.544 211.600 C 98.000 209.950,97.368 208.060,97.139 207.400 C 96.910 206.740,96.561 205.390,96.362 204.400 C 96.162 203.410,95.837 202.150,95.638 201.600 C 95.281 200.613,94.242 194.889,92.972 186.909 C 92.179 181.934,92.030 160.711,92.763 157.175 C 93.011 155.979,93.477 153.380,93.800 151.400 C 94.788 145.341,95.113 143.764,95.769 141.831 C 96.116 140.809,96.400 139.606,96.400 139.160 C 96.400 138.713,96.608 137.958,96.863 137.483 C 97.117 137.008,97.465 136.075,97.635 135.409 C 98.039 133.834,99.083 130.930,99.818 129.340 C 100.138 128.646,100.400 127.864,100.400 127.601 C 100.400 127.338,100.663 126.646,100.984 126.062 C 101.304 125.478,101.945 124.100,102.408 123.000 C 103.605 120.151,104.346 118.682,106.500 114.886 C 107.545 113.044,108.400 111.466,108.400 111.378 C 108.400 111.228,112.331 105.361,114.429 102.380 C 116.068 100.050,120.818 94.441,124.198 90.844 C 129.032 85.698,139.408 77.437,145.186 74.134 C 149.442 71.701,159.419 66.891,161.600 66.220 C 162.810 65.847,164.160 65.375,164.600 65.171 C 168.244 63.477,179.983 61.022,181.300 61.679 C 181.935 61.996,182.000 62.843,182.000 70.752 M151.614 317.040 C 144.648 318.912,137.430 326.723,137.631 332.171 C 137.647 332.627,137.986 331.899,138.384 330.554 C 143.255 314.069,165.726 312.173,173.681 327.576 C 175.021 330.171,176.094 337.509,175.280 338.517 C 175.066 338.783,174.757 339.810,174.593 340.799 C 174.150 343.484,172.515 346.228,169.511 349.330 L 166.822 352.107 166.849 356.753 C 166.876 361.402,166.599 363.600,165.987 363.600 C 165.284 363.600,163.120 365.784,162.477 367.141 C 159.975 372.428,152.632 371.607,149.517 365.690 C 149.141 364.977,148.406 364.230,147.884 364.032 C 147.361 363.833,146.638 363.070,146.276 362.335 C 145.797 361.362,145.616 361.215,145.609 361.793 C 145.604 362.234,146.532 363.484,147.700 364.608 C 148.855 365.721,150.160 367.254,150.600 368.016 C 153.020 372.203,160.039 372.108,162.673 367.852 C 163.236 366.943,164.556 365.366,165.607 364.348 L 167.519 362.495 167.436 357.406 L 167.353 352.317 169.484 350.203 C 172.407 347.304,174.800 343.560,174.800 341.888 C 174.800 341.564,175.070 340.651,175.400 339.862 C 175.730 339.072,176.000 337.294,176.000 335.912 C 176.000 323.231,163.776 313.772,151.614 317.040 M153.600 318.785 C 146.903 319.918,141.115 325.228,139.632 331.600 C 138.881 334.828,138.661 337.951,139.145 338.533 C 139.376 338.812,139.692 339.836,139.848 340.810 C 140.943 347.660,151.262 355.138,154.774 351.626 C 156.106 350.294,155.659 349.529,152.683 348.046 C 145.707 344.571,144.868 339.389,150.154 332.432 C 152.566 329.257,153.600 327.047,153.600 325.068 C 153.600 321.985,154.629 321.710,157.528 324.018 C 160.220 326.162,163.369 330.172,164.630 333.064 C 165.190 334.349,165.818 335.713,166.024 336.095 C 167.859 339.488,165.550 345.729,161.800 347.512 C 160.700 348.035,159.351 348.680,158.803 348.945 C 156.398 350.108,157.786 352.000,161.045 352.000 C 166.732 352.000,173.784 344.229,173.554 338.214 C 173.524 337.441,173.446 337.291,173.340 337.800 C 171.656 345.855,166.881 351.200,161.371 351.200 C 157.352 351.200,157.076 350.074,160.747 348.648 C 169.257 345.341,168.801 334.450,159.775 325.436 C 155.522 321.188,153.200 320.951,153.200 324.766 C 153.200 326.624,152.062 329.147,150.027 331.800 C 146.977 335.776,146.696 336.367,146.491 339.231 C 146.181 343.558,148.536 347.120,152.648 348.543 C 155.751 349.617,155.349 351.600,152.030 351.600 C 142.588 351.600,136.329 336.990,141.783 327.683 C 149.926 313.788,170.351 317.636,173.186 333.600 C 173.483 335.271,173.509 335.302,173.553 334.028 C 173.848 325.431,163.054 317.185,153.600 318.785 M73.680 321.680 C 73.047 322.313,72.984 365.649,73.614 366.826 C 74.001 367.549,74.523 367.600,81.538 367.600 C 90.538 367.600,90.611 367.573,90.578 364.183 C 90.548 361.104,90.079 360.800,85.356 360.800 C 80.004 360.800,80.400 361.325,80.400 354.237 C 80.400 346.972,80.261 347.200,84.680 347.200 C 88.725 347.200,89.600 346.609,89.600 343.876 C 89.600 341.235,89.147 340.926,84.904 340.673 C 80.069 340.384,80.400 340.874,80.400 334.023 C 80.400 327.083,79.945 327.614,85.891 327.605 C 90.589 327.599,92.527 324.845,89.987 321.784 C 89.345 321.010,74.445 320.915,73.680 321.680 M89.777 322.489 C 91.794 325.369,90.302 326.865,85.337 326.939 C 79.780 327.023,80.000 326.722,80.000 334.235 C 80.000 341.490,79.795 341.200,84.925 341.200 C 88.951 341.200,89.402 341.527,89.099 344.223 C 88.828 346.625,88.913 346.579,84.467 346.741 C 79.726 346.914,80.012 346.448,80.012 354.000 C 80.012 361.765,79.700 361.316,85.275 361.583 L 89.800 361.800 90.168 363.291 C 90.420 364.308,90.389 365.105,90.073 365.799 L 89.609 366.817 81.705 366.708 L 73.800 366.600 73.697 344.645 C 73.622 328.764,73.718 322.539,74.046 322.145 C 74.933 321.076,89.003 321.384,89.777 322.489 M153.675 330.040 C 152.255 332.794,152.211 332.578,155.000 336.478 C 158.509 341.385,159.976 339.433,158.037 332.438 C 156.544 327.050,155.510 326.482,153.675 330.040 M156.327 329.300 C 157.800 331.717,159.079 338.800,158.042 338.800 C 157.257 338.800,153.680 334.447,153.389 333.138 C 153.190 332.244,154.859 328.000,155.409 328.000 C 155.478 328.000,155.891 328.585,156.327 329.300 M159.040 329.440 C 158.894 329.822,158.954 330.314,159.174 330.534 C 159.440 330.800,159.663 330.703,159.840 330.240 C 159.986 329.858,159.926 329.366,159.706 329.146 C 159.440 328.880,159.217 328.977,159.040 329.440 M190.883 332.968 C 185.402 335.586,183.362 341.409,186.068 346.712 C 187.271 349.070,189.940 350.883,195.218 352.929 C 201.822 355.488,203.712 358.260,201.632 362.337 C 199.029 367.440,190.443 365.567,187.417 359.235 C 186.157 356.599,184.733 355.885,184.269 357.658 C 184.101 358.301,184.159 358.401,184.502 358.058 C 185.249 357.311,186.326 357.535,186.629 358.500 C 188.839 365.540,198.226 368.183,201.900 362.800 C 204.459 359.051,202.051 355.033,195.800 352.623 C 187.367 349.371,185.600 347.535,185.600 342.024 C 185.600 337.393,187.717 334.459,192.075 333.052 C 195.785 331.853,203.403 332.635,204.978 334.376 C 205.645 335.112,206.591 339.368,206.221 339.967 C 205.939 340.423,204.400 340.038,204.400 339.511 C 204.400 336.009,196.725 333.194,192.626 335.193 C 186.575 338.145,189.076 343.455,198.182 346.983 C 208.685 351.052,211.618 359.949,204.200 365.235 C 199.084 368.880,185.621 367.763,185.592 363.691 C 185.588 363.091,185.319 361.700,184.994 360.600 L 184.403 358.600 184.602 360.559 C 185.118 365.634,185.600 366.175,190.705 367.409 C 209.378 371.920,215.962 352.282,197.800 346.246 C 193.292 344.748,190.000 342.081,190.000 339.928 C 190.000 333.483,201.345 333.189,203.986 339.566 C 204.504 340.817,205.970 341.471,206.495 340.685 C 207.008 339.919,206.412 335.500,205.653 334.434 C 203.958 332.055,194.716 331.137,190.883 332.968 M160.991 333.610 C 160.400 334.263,160.231 335.249,160.114 338.710 C 160.034 341.069,159.931 343.716,159.885 344.591 C 159.821 345.794,159.961 346.213,160.460 346.312 C 161.334 346.486,164.409 343.535,164.368 342.562 C 164.343 341.960,164.259 342.010,163.965 342.800 C 163.761 343.350,162.958 344.233,162.180 344.763 C 160.240 346.085,159.817 345.573,160.370 342.577 C 160.607 341.299,160.800 338.972,160.800 337.407 C 160.800 331.442,163.872 332.796,164.324 338.959 C 164.494 341.279,164.590 341.587,164.847 340.640 C 165.801 337.135,162.782 331.631,160.991 333.610 M137.328 336.000 C 137.328 337.430,137.401 338.015,137.489 337.300 C 137.578 336.585,137.578 335.415,137.489 334.700 C 137.401 333.985,137.328 334.570,137.328 336.000 M149.709 335.300 C 147.173 338.560,147.686 342.364,151.035 345.124 C 154.040 347.602,157.713 347.148,157.546 344.319 C 157.493 343.439,157.484 343.436,157.323 344.258 C 156.627 347.816,151.415 346.341,149.176 341.954 C 148.211 340.061,148.212 339.706,149.186 337.433 C 150.481 334.412,151.036 334.706,155.806 340.948 C 156.793 342.240,157.600 343.091,157.600 342.840 C 157.600 342.377,154.293 337.919,152.453 335.900 C 151.378 334.721,150.337 334.493,149.709 335.300 M99.874 336.156 C 97.376 337.085,94.777 340.332,94.818 342.471 C 94.831 343.156,94.983 342.986,95.397 341.823 C 97.400 336.200,105.429 333.713,106.755 338.305 L 107.186 339.800 106.984 338.405 C 106.623 335.911,103.329 334.869,99.874 336.156 M116.572 336.357 C 113.634 337.691,110.701 342.775,110.846 346.284 C 110.889 347.315,110.917 347.294,111.216 346.000 C 112.492 340.481,113.466 338.639,115.868 337.197 C 124.472 332.035,131.188 343.149,128.180 357.569 C 125.613 369.874,113.734 368.636,111.214 355.800 L 110.900 354.200 110.850 355.622 C 110.445 367.134,126.385 370.420,128.231 359.205 C 128.358 358.432,128.628 357.278,128.831 356.640 C 129.896 353.293,128.848 342.467,127.200 339.800 C 124.863 336.018,120.459 334.592,116.572 336.357 M137.616 339.237 C 137.554 341.758,140.727 347.499,143.750 350.336 C 145.270 351.762,145.606 352.334,145.634 353.536 L 145.669 355.000 146.016 353.839 C 146.465 352.337,146.141 351.772,142.984 348.569 C 141.564 347.128,140.292 345.510,140.158 344.974 C 140.023 344.438,139.761 344.000,139.575 344.000 C 139.389 344.000,139.110 343.325,138.956 342.500 C 138.623 340.722,137.638 338.324,137.616 339.237 M263.670 340.126 C 263.191 340.635,262.800 341.224,262.800 341.434 C 262.800 342.056,261.116 343.606,259.431 344.535 C 257.363 345.675,257.284 346.134,258.983 347.137 L 260.400 347.973 260.409 355.487 C 260.419 364.006,260.826 365.673,263.277 367.217 C 265.645 368.710,271.030 367.720,272.580 365.507 C 273.658 363.968,272.964 363.765,269.539 364.615 C 267.142 365.210,266.800 364.112,266.800 355.829 C 266.800 347.455,266.885 347.200,269.697 347.200 C 271.727 347.200,272.963 346.253,272.373 345.150 C 272.086 344.614,271.528 344.400,270.412 344.400 C 267.649 344.400,266.800 343.846,266.800 342.043 C 266.800 339.059,265.449 338.232,263.670 340.126 M106.400 340.333 C 106.400 340.618,105.715 340.800,104.641 340.800 C 102.065 340.800,99.505 343.895,100.118 346.268 C 100.244 346.753,100.323 346.627,100.354 345.892 C 100.469 343.146,102.903 340.895,105.209 341.402 C 106.364 341.656,107.328 340.795,106.649 340.116 C 106.512 339.979,106.400 340.077,106.400 340.333 M266.400 341.771 C 266.400 344.119,267.126 344.800,269.629 344.800 C 270.713 344.800,271.600 344.875,271.600 344.967 C 271.600 345.059,271.700 345.396,271.823 345.716 C 271.998 346.170,271.549 346.338,269.763 346.486 C 266.403 346.765,266.400 346.773,266.400 355.876 C 266.400 363.067,266.455 363.655,267.200 364.400 C 268.092 365.292,270.358 365.482,271.113 364.727 C 271.790 364.050,272.143 364.586,271.640 365.526 C 270.665 367.348,265.846 368.113,263.676 366.790 C 261.496 365.460,261.200 364.156,261.200 355.867 C 261.200 348.128,260.793 346.400,258.971 346.400 C 257.941 346.400,258.371 345.763,260.032 344.830 C 260.930 344.326,262.296 343.032,263.069 341.956 C 265.008 339.258,266.400 339.181,266.400 341.771 M118.019 341.520 C 114.993 344.546,115.436 358.890,118.620 360.976 C 122.544 363.548,125.417 354.234,123.424 345.400 C 122.769 342.499,122.678 343.510,123.227 347.600 C 124.127 354.309,122.556 360.800,120.033 360.800 C 117.577 360.800,116.606 358.025,116.603 351.000 C 116.600 342.407,118.581 338.852,121.742 341.781 C 122.324 342.320,122.800 342.603,122.800 342.410 C 122.800 340.632,119.518 340.021,118.019 341.520 M94.069 346.148 C 93.460 349.454,93.500 353.201,94.176 356.200 C 94.856 359.210,94.953 358.078,94.336 354.342 C 93.976 352.167,93.984 350.667,94.368 347.730 C 94.940 343.357,94.759 342.400,94.069 346.148 M242.286 344.287 C 234.935 346.738,235.921 355.939,243.800 358.406 C 248.676 359.933,250.246 361.951,248.300 364.191 C 246.166 366.648,241.585 365.688,239.534 362.355 C 237.786 359.513,236.503 360.290,236.915 363.943 C 237.646 370.433,252.066 369.247,253.797 362.555 C 255.121 357.437,253.172 355.000,245.549 352.241 C 242.384 351.096,241.364 349.203,242.975 347.465 C 245.081 345.192,249.611 346.484,250.614 349.644 C 251.169 351.392,252.590 350.407,252.698 348.200 C 252.887 344.325,247.851 342.432,242.286 344.287 M284.400 344.260 C 274.032 347.839,272.389 361.909,281.753 366.919 C 285.669 369.014,294.358 367.614,296.813 364.492 C 298.345 362.545,297.034 361.874,294.391 363.252 C 288.747 366.194,282.348 363.030,282.871 357.555 L 283.000 356.200 285.800 355.950 C 287.340 355.812,290.417 355.677,292.638 355.650 C 297.556 355.589,298.260 355.135,297.791 352.325 C 296.695 345.755,290.637 342.106,284.400 344.260 M306.600 344.089 C 302.389 344.571,300.438 345.850,302.782 346.594 C 305.637 347.500,305.846 365.600,303.001 365.600 C 302.265 365.600,301.941 366.181,302.241 366.964 C 302.639 368.000,313.200 367.909,313.200 366.870 C 313.200 366.468,312.750 365.717,312.200 365.200 C 310.816 363.900,310.651 353.105,311.982 350.922 C 313.563 348.330,317.010 347.384,318.440 349.150 C 320.047 351.135,320.093 363.601,318.500 365.295 C 316.593 367.322,317.088 367.600,322.613 367.600 C 328.279 367.600,329.160 367.154,326.958 365.400 C 324.703 363.603,325.135 352.161,327.545 349.852 C 329.631 347.854,332.587 347.708,333.576 349.555 C 334.521 351.321,334.112 364.331,333.080 365.319 C 331.124 367.192,331.931 367.600,337.587 367.600 C 343.007 367.600,344.412 367.060,342.522 365.703 C 340.303 364.110,340.400 364.515,340.400 356.854 C 340.400 348.222,340.278 347.522,338.441 345.609 C 335.834 342.893,332.233 343.093,328.020 346.185 L 325.975 347.686 324.054 345.890 C 321.032 343.062,317.700 342.965,314.065 345.599 C 312.034 347.070,311.200 347.137,311.200 345.829 C 311.200 345.057,310.181 343.394,309.871 343.662 C 309.832 343.696,308.360 343.888,306.600 344.089 M250.396 345.001 C 252.086 345.578,252.814 347.373,252.044 349.063 L 251.567 350.110 250.552 348.544 C 248.280 345.040,243.770 344.563,242.170 347.658 C 241.018 349.886,242.042 351.466,245.489 352.777 C 252.742 355.537,253.726 356.532,253.509 360.891 C 253.246 366.163,248.550 368.619,241.520 367.160 C 238.114 366.454,237.600 365.959,237.600 363.391 C 237.600 361.205,238.119 360.484,238.600 362.000 C 238.740 362.440,239.010 362.800,239.200 362.800 C 239.390 362.800,239.666 363.178,239.813 363.640 C 240.575 366.042,246.853 366.713,248.700 364.590 C 250.755 362.228,249.205 359.825,244.542 358.142 C 239.452 356.304,237.886 354.607,237.886 350.926 C 237.886 345.606,243.870 342.772,250.396 345.001 M291.800 345.039 C 294.756 346.115,296.694 348.695,297.409 352.509 C 297.779 354.482,297.162 354.761,291.968 354.965 C 282.234 355.348,281.518 355.660,282.393 359.142 C 283.683 364.275,289.221 366.309,294.800 363.700 C 297.001 362.670,297.369 363.221,295.560 364.835 C 291.738 368.248,283.610 368.313,279.628 364.962 C 270.209 357.037,280.133 340.794,291.800 345.039 M322.923 345.387 C 323.516 345.775,324.000 346.251,324.000 346.446 C 324.000 346.929,325.505 348.400,325.999 348.400 C 326.218 348.400,327.073 347.795,327.899 347.055 C 331.918 343.452,336.834 343.399,339.000 346.935 C 339.680 348.045,339.801 349.222,339.988 356.524 C 340.194 364.618,340.225 364.867,341.118 365.539 C 342.490 366.573,341.856 366.800,337.600 366.800 C 333.092 366.800,333.015 366.760,334.067 364.976 C 335.202 363.052,335.044 350.855,333.861 349.111 C 332.240 346.721,327.889 347.547,326.282 350.550 C 324.886 353.160,324.937 364.495,326.349 365.561 C 327.662 366.552,326.878 366.800,322.434 366.800 C 318.422 366.800,318.133 366.665,319.213 365.292 C 320.397 363.787,320.401 351.262,319.218 349.322 C 317.656 346.761,313.800 347.306,311.770 350.373 C 310.206 352.737,310.010 363.704,311.504 365.296 C 312.774 366.650,312.401 366.800,307.757 366.800 C 303.221 366.800,302.809 366.618,304.236 365.244 C 306.615 362.954,306.033 347.372,303.539 346.581 C 301.670 345.988,303.627 345.052,307.744 344.571 C 310.333 344.268,310.783 344.550,310.794 346.476 C 310.803 348.139,311.303 348.116,313.968 346.326 C 317.496 343.957,320.294 343.664,322.923 345.387 M210.000 344.767 C 210.000 345.579,210.516 346.400,211.026 346.400 C 211.712 346.400,213.188 348.915,215.161 353.447 C 216.901 357.445,218.505 361.022,219.627 363.410 C 221.837 368.110,219.250 374.800,215.222 374.800 C 213.232 374.800,212.039 375.804,211.729 377.740 C 211.224 380.893,216.117 380.759,219.057 377.539 C 219.796 376.730,222.400 371.646,222.400 371.012 C 222.400 370.891,222.745 370.028,223.167 369.096 C 223.588 368.163,225.784 363.080,228.047 357.800 C 231.126 350.614,232.492 347.880,233.480 346.927 C 235.725 344.762,235.370 344.400,231.000 344.400 C 226.835 344.400,226.837 344.399,228.035 346.365 C 228.917 347.812,228.696 349.806,227.366 352.400 C 227.084 352.950,226.391 354.457,225.827 355.749 C 224.649 358.443,224.073 358.370,222.784 355.362 C 222.395 354.455,221.630 352.742,221.083 351.556 C 219.599 348.333,219.476 347.436,220.406 346.594 C 222.435 344.758,221.651 344.400,215.600 344.400 C 212.466 344.400,210.000 344.562,210.000 344.767 M219.857 345.405 C 219.985 345.738,219.869 346.276,219.600 346.600 C 218.704 347.679,222.625 357.764,224.126 358.240 C 225.943 358.817,230.213 347.973,228.747 346.507 C 227.722 345.482,228.698 344.800,231.187 344.800 C 233.903 344.800,234.262 345.298,232.687 346.882 C 232.184 347.387,230.824 350.050,229.664 352.800 C 228.504 355.550,227.395 358.160,227.199 358.600 C 225.833 361.676,225.200 363.185,225.200 363.369 C 225.200 363.487,224.560 364.981,223.778 366.691 C 222.996 368.401,222.201 370.160,222.011 370.600 C 219.391 376.654,218.741 377.595,216.316 378.839 C 213.362 380.354,211.462 379.468,212.396 377.012 C 212.774 376.015,213.556 375.600,215.053 375.600 C 217.550 375.600,218.965 373.996,220.804 369.081 L 221.611 366.925 220.772 364.963 C 220.312 363.883,219.694 362.460,219.400 361.800 C 219.106 361.140,218.152 358.980,217.281 357.000 C 214.158 349.901,212.894 347.389,212.080 346.662 C 210.492 345.245,211.345 344.800,215.655 344.800 C 218.830 344.800,219.672 344.921,219.857 345.405 M284.740 346.208 C 282.520 347.414,281.092 352.686,282.745 353.570 C 283.835 354.154,290.280 353.627,290.879 352.905 C 293.385 349.885,288.261 344.295,284.740 346.208 M289.357 347.555 C 292.383 350.714,291.169 353.200,286.600 353.200 C 282.693 353.200,282.186 352.848,282.597 350.420 C 283.227 346.688,286.996 345.091,289.357 347.555 M99.744 350.800 C 99.744 352.890,99.812 353.745,99.894 352.700 C 99.976 351.655,99.976 349.945,99.894 348.900 C 99.812 347.855,99.744 348.710,99.744 350.800 M110.528 350.800 C 110.528 352.230,110.601 352.815,110.689 352.100 C 110.778 351.385,110.778 350.215,110.689 349.500 C 110.601 348.785,110.528 349.370,110.528 350.800 M150.014 353.177 C 148.062 353.491,147.092 355.176,148.175 356.373 C 149.260 357.572,163.353 357.652,164.816 356.467 C 165.967 355.535,165.653 353.708,164.294 353.429 C 162.853 353.134,151.528 352.934,150.014 353.177 M163.872 353.845 C 165.163 354.191,165.405 355.266,164.380 356.096 C 163.498 356.810,151.628 357.172,149.328 356.555 C 147.841 356.156,147.703 354.248,149.134 353.869 C 150.151 353.600,162.880 353.579,163.872 353.845 M100.046 355.946 C 99.946 358.863,102.807 361.805,105.278 361.325 C 106.226 361.140,106.402 361.276,106.742 362.458 C 106.985 363.304,107.141 363.500,107.164 362.989 C 107.228 361.553,106.182 360.512,104.869 360.704 C 102.686 361.025,101.041 359.303,100.374 356.000 L 100.092 354.600 100.046 355.946 M145.700 358.000 C 145.705 360.239,145.756 360.420,146.064 359.300 C 146.277 358.528,146.275 357.472,146.058 356.700 C 145.743 355.578,145.694 355.756,145.700 358.000 M94.832 359.450 C 94.779 360.876,96.803 363.991,98.522 365.127 C 101.301 366.964,106.800 366.523,106.800 364.462 C 106.800 363.964,106.670 364.008,106.215 364.658 C 103.693 368.258,97.049 365.006,95.068 359.200 C 94.932 358.803,94.852 358.888,94.832 359.450 M148.262 359.531 C 145.936 362.102,147.662 362.800,156.340 362.800 C 164.299 362.800,165.600 362.519,165.600 360.800 C 165.600 358.705,150.040 357.567,148.262 359.531 M164.420 359.936 L 165.329 360.671 164.464 361.536 C 163.597 362.403,152.020 362.877,149.328 362.155 C 147.841 361.756,147.703 359.848,149.134 359.469 C 151.433 358.860,163.549 359.230,164.420 359.936 M152.900 364.412 C 150.463 365.392,153.421 369.200,156.619 369.200 C 158.218 369.200,161.600 367.006,161.600 365.969 C 161.600 364.263,155.837 363.232,152.900 364.412 M160.400 365.192 C 162.249 366.363,157.810 369.230,155.431 368.401 C 153.213 367.628,151.651 365.569,152.900 365.065 C 153.801 364.702,159.786 364.803,160.400 365.192 " stroke="none" fill="#a27c7c" fill-rule="evenodd"></path></g></svg>