<svg id="svg" xmlns="http://www.w3.org/2000/svg" xmlns:xlink="http://www.w3.org/1999/xlink" width="400" height="212.64957264957263" viewBox="0, 0, 400,212.64957264957263"><g id="svgg"><path id="path0" d="M121.128 25.819 C 120.673 25.989,119.572 26.285,118.683 26.477 C 116.451 26.959,114.450 27.632,113.508 28.216 C 113.071 28.487,112.636 28.708,112.540 28.708 C 111.574 28.708,107.699 32.542,106.326 34.856 C 106.034 35.349,105.579 36.085,105.316 36.493 C 105.053 36.900,104.837 37.349,104.837 37.490 C 104.836 37.631,104.713 37.985,104.563 38.278 C 104.413 38.570,104.115 39.431,103.901 40.191 C 103.687 40.952,103.386 42.004,103.233 42.531 C 101.652 47.975,102.317 58.801,104.536 63.722 C 104.702 64.090,104.838 64.444,104.838 64.508 C 104.838 64.573,105.125 65.051,105.476 65.570 C 105.827 66.090,106.114 66.577,106.114 66.653 C 106.114 67.722,110.240 71.490,112.706 72.673 C 117.114 74.788,124.765 75.366,128.879 73.894 C 129.750 73.582,130.750 73.240,131.100 73.134 C 132.820 72.614,135.843 70.740,136.114 70.027 C 136.393 69.292,136.361 66.058,136.072 65.769 C 135.759 65.456,135.410 65.603,133.793 66.729 C 131.989 67.984,129.458 69.232,127.787 69.688 C 124.897 70.478,118.109 70.046,116.951 68.999 C 116.762 68.827,116.518 68.684,116.411 68.681 C 115.641 68.657,111.430 64.877,111.430 64.210 C 111.430 64.116,111.307 63.912,111.156 63.758 C 110.292 62.872,108.786 58.762,108.445 56.361 C 108.337 55.596,108.155 54.540,108.041 54.014 C 107.775 52.788,107.773 49.089,108.037 47.847 C 108.149 47.321,108.329 46.124,108.437 45.189 C 108.661 43.244,109.607 40.190,110.501 38.523 C 110.837 37.897,111.245 37.138,111.408 36.835 C 111.909 35.903,115.320 32.654,116.217 32.254 C 116.684 32.045,117.319 31.736,117.630 31.567 C 117.940 31.398,118.389 31.260,118.627 31.260 C 118.866 31.260,119.113 31.175,119.177 31.072 C 119.613 30.366,125.301 30.240,126.777 30.904 C 127.167 31.079,127.840 31.282,128.274 31.356 C 128.708 31.429,129.330 31.628,129.656 31.798 C 129.983 31.969,130.331 32.109,130.431 32.109 C 130.668 32.111,134.772 34.835,134.935 35.098 C 135.552 36.097,136.414 34.273,136.235 32.347 C 136.055 30.412,135.494 29.638,133.546 28.634 C 133.020 28.363,132.398 28.037,132.164 27.911 C 131.433 27.516,129.050 26.838,127.197 26.497 C 126.220 26.318,125.286 26.059,125.121 25.923 C 124.649 25.531,122.082 25.464,121.128 25.819 M158.615 25.927 C 158.195 26.152,157.295 26.439,156.614 26.565 C 155.240 26.818,152.754 27.570,152.259 27.881 C 152.084 27.991,151.460 28.315,150.872 28.601 C 146.846 30.560,142.848 36.287,141.817 41.574 C 141.703 42.158,141.470 43.273,141.299 44.050 C 140.681 46.866,140.916 56.016,141.706 59.862 C 142.748 64.933,145.629 69.648,148.851 71.558 C 150.777 72.699,151.255 72.938,152.506 73.383 C 153.248 73.647,153.966 73.947,154.102 74.050 C 155.338 74.987,167.071 74.916,168.953 73.960 C 169.304 73.781,170.117 73.464,170.760 73.255 C 171.804 72.915,174.669 71.302,175.544 70.562 C 176.909 69.408,179.054 66.846,179.054 66.370 C 179.054 66.276,179.318 65.826,179.641 65.369 C 180.576 64.049,182.272 59.212,182.542 57.097 C 182.617 56.512,182.766 55.556,182.873 54.971 C 183.203 53.177,183.136 45.845,182.771 43.806 C 182.199 40.611,182.080 40.117,181.439 38.278 C 180.571 35.784,180.393 35.417,179.176 33.599 C 178.172 32.098,175.936 29.568,175.609 29.562 C 175.527 29.560,175.035 29.272,174.515 28.921 C 173.995 28.570,173.475 28.283,173.360 28.283 C 173.246 28.283,173.041 28.149,172.905 27.986 C 172.770 27.823,172.304 27.623,171.869 27.542 C 171.435 27.461,170.984 27.317,170.867 27.224 C 170.750 27.130,169.888 26.887,168.953 26.685 C 168.017 26.482,166.850 26.136,166.359 25.917 C 165.035 25.325,159.725 25.332,158.615 25.927 M71.521 26.795 C 71.267 26.897,70.812 27.195,70.511 27.458 L 69.963 27.934 69.963 50.506 L 69.963 73.077 70.832 73.646 L 71.702 74.216 83.672 74.216 C 94.335 74.216,95.672 74.179,95.921 73.879 C 96.373 73.334,96.447 71.127,96.033 70.496 L 95.684 69.963 86.046 69.963 C 76.979 69.963,76.387 69.940,76.056 69.574 C 75.741 69.225,75.704 68.286,75.704 60.548 L 75.704 51.911 76.177 51.580 C 76.585 51.295,77.756 51.249,84.676 51.249 C 93.854 51.249,93.142 51.419,93.142 49.229 C 93.142 47.024,93.793 47.187,85.102 47.209 C 80.927 47.220,77.256 47.224,76.942 47.219 C 75.699 47.197,75.704 47.231,75.708 39.166 C 75.709 35.110,75.781 31.686,75.867 31.558 C 76.317 30.883,77.002 30.835,86.014 30.835 L 95.075 30.835 95.625 30.285 C 96.250 29.660,96.233 28.068,95.589 27.086 L 95.259 26.582 83.621 26.595 C 77.220 26.602,71.775 26.692,71.521 26.795 M165.521 30.513 C 166.324 30.683,167.089 30.908,167.222 31.012 C 167.355 31.116,167.724 31.263,168.041 31.339 C 171.810 32.239,175.937 37.682,176.697 42.755 C 176.810 43.509,177.004 44.460,177.127 44.868 C 177.420 45.835,177.412 54.069,177.117 55.183 C 176.993 55.651,176.810 56.620,176.709 57.336 C 176.090 61.719,173.375 66.063,169.826 68.346 C 165.192 71.327,158.083 71.263,153.388 68.198 C 151.804 67.164,150.378 65.740,149.802 64.618 C 149.600 64.224,149.256 63.672,149.037 63.392 C 148.539 62.753,147.269 58.779,146.841 56.519 C 145.984 52.004,146.515 44.795,148.040 40.229 C 149.248 36.613,152.378 33.012,155.449 31.707 C 156.093 31.433,156.872 31.078,157.181 30.917 C 158.539 30.211,163.060 29.992,165.521 30.513 M289.427 68.488 C 289.137 68.609,288.828 68.823,288.739 68.963 C 288.649 69.104,288.575 79.095,288.573 91.167 L 288.570 113.115 289.032 113.546 C 289.905 114.359,293.028 114.439,293.878 113.670 C 294.491 113.115,294.571 69.168,293.960 68.660 C 293.526 68.299,290.182 68.172,289.427 68.488 M305.483 69.268 L 304.944 70.062 304.947 91.118 C 304.951 114.112,304.884 112.938,306.223 113.609 C 307.142 114.071,327.713 114.186,329.207 113.738 C 330.127 113.462,330.411 112.577,330.194 110.654 C 330.022 109.127,330.521 109.208,320.545 109.091 L 311.498 108.985 311.092 108.483 C 310.464 107.707,310.464 93.675,311.092 92.900 L 311.499 92.398 318.979 92.398 L 326.458 92.398 326.866 91.896 C 327.434 91.195,327.435 89.136,326.866 88.434 L 326.460 87.932 318.845 87.826 L 311.230 87.719 310.961 87.188 C 310.533 86.341,310.586 74.259,311.021 73.684 C 311.331 73.273,311.627 73.257,320.100 73.199 L 328.859 73.139 329.448 72.574 C 329.969 72.075,330.037 71.855,330.037 70.683 C 330.037 68.322,330.902 68.474,317.470 68.474 L 306.023 68.474 305.483 69.268 " stroke="none" fill="#434542" fill-rule="evenodd"></path><path id="path1" d="M0.000 106.326 L 0.000 212.653 200.000 212.653 L 400.000 212.653 400.000 106.326 L 400.000 0.000 200.000 0.000 L 0.000 0.000 0.000 106.326 M129.399 25.884 C 135.710 27.909,138.098 30.501,137.131 34.274 C 136.560 36.503,135.345 36.651,132.908 34.787 C 127.393 30.569,118.955 30.539,114.482 34.722 C 113.415 35.720,112.955 36.314,111.727 38.278 C 108.629 43.233,108.032 54.791,110.578 60.546 C 110.813 61.077,111.005 61.588,111.005 61.683 C 111.005 62.025,112.987 64.776,113.952 65.772 C 115.474 67.344,116.989 68.137,119.936 68.908 C 121.142 69.223,125.957 69.156,126.999 68.809 C 127.501 68.643,128.308 68.403,128.793 68.275 C 129.768 68.020,132.983 66.316,133.655 65.698 C 135.802 63.725,137.374 64.567,137.374 67.689 C 137.374 70.572,136.776 71.399,133.440 73.128 C 131.772 73.992,130.242 74.641,129.870 74.641 C 129.706 74.641,129.007 74.847,128.316 75.099 C 126.838 75.637,119.686 75.933,117.992 75.526 C 111.253 73.906,107.259 70.964,104.330 65.461 C 103.791 64.447,103.346 63.490,103.342 63.334 C 103.338 63.179,103.150 62.669,102.924 62.201 C 102.698 61.733,102.510 61.144,102.506 60.891 C 102.502 60.638,102.307 59.825,102.072 59.083 C 99.899 52.222,102.074 38.079,105.992 33.599 C 106.248 33.307,106.711 32.720,107.021 32.296 C 108.316 30.524,110.714 28.520,112.706 27.544 C 113.349 27.229,114.046 26.881,114.254 26.771 C 117.516 25.039,125.341 24.581,129.399 25.884 M170.229 25.902 C 173.861 27.204,177.608 29.573,178.706 31.260 C 178.897 31.552,179.339 32.174,179.689 32.642 C 181.059 34.474,182.520 37.587,182.781 39.234 C 182.855 39.702,183.061 40.468,183.239 40.936 C 185.285 46.317,183.869 59.986,180.694 65.497 C 180.391 66.023,179.905 66.885,179.615 67.411 C 177.576 71.103,171.575 74.736,166.082 75.604 C 163.788 75.966,159.072 75.971,156.725 75.614 C 152.695 75.001,148.332 72.830,145.734 70.145 C 143.913 68.263,141.881 64.687,141.400 62.520 C 141.309 62.111,141.082 61.362,140.895 60.857 C 139.484 57.042,139.607 43.317,141.077 40.510 C 141.261 40.159,141.412 39.712,141.413 39.516 C 141.415 38.986,142.685 35.909,143.143 35.325 C 143.362 35.046,143.541 34.729,143.541 34.620 C 143.541 34.386,144.339 33.287,145.626 31.748 C 148.359 28.484,153.561 25.669,157.576 25.284 C 161.510 24.907,168.390 25.243,170.229 25.902 M95.970 25.948 C 97.064 26.809,97.225 30.336,96.216 31.346 C 95.689 31.873,93.889 31.948,85.666 31.788 C 78.105 31.641,77.579 31.655,77.186 32.010 C 76.704 32.446,76.524 45.081,76.988 45.947 C 77.199 46.342,77.514 46.358,85.021 46.358 C 93.699 46.358,93.494 46.326,94.102 47.781 C 94.481 48.689,94.502 49.536,94.173 50.636 C 93.697 52.223,94.076 52.156,85.131 52.234 C 78.945 52.288,77.078 52.366,76.946 52.574 C 76.511 53.260,76.743 68.659,77.192 68.899 C 77.475 69.051,80.650 69.118,86.780 69.103 C 95.369 69.082,95.971 69.105,96.380 69.468 C 97.762 70.699,97.697 73.803,96.271 74.737 C 95.582 75.189,72.524 75.278,71.046 74.835 C 69.538 74.383,69.650 76.205,69.586 50.991 C 69.523 25.956,69.487 26.728,70.757 25.992 C 71.970 25.289,95.080 25.248,95.970 25.948 M159.518 31.515 C 153.236 32.213,148.567 37.933,147.794 45.877 C 147.403 49.895,147.718 57.500,148.325 58.692 C 148.474 58.985,148.743 59.798,148.923 60.500 C 150.399 66.260,154.635 69.190,161.510 69.208 C 167.479 69.224,170.304 67.895,173.149 63.731 C 177.527 57.325,177.493 42.372,173.087 36.441 C 170.525 32.991,165.928 30.924,161.632 31.288 C 161.448 31.304,160.497 31.406,159.518 31.515 M293.917 67.879 C 295.163 68.579,295.052 66.047,294.995 92.467 L 294.949 113.589 294.309 114.230 L 293.669 114.870 291.313 114.798 C 289.035 114.729,288.941 114.706,288.445 114.130 L 287.932 113.533 287.935 91.163 C 287.937 78.860,288.009 68.686,288.095 68.554 C 288.875 67.361,292.290 66.965,293.917 67.879 M329.547 68.040 C 330.368 68.540,330.565 69.333,330.409 71.512 C 330.226 74.066,330.514 74.000,319.597 73.964 C 315.316 73.949,311.704 74.006,311.569 74.089 C 311.132 74.360,311.232 86.309,311.676 86.799 C 312.003 87.161,312.523 87.188,319.172 87.191 C 324.499 87.193,326.451 87.262,326.847 87.463 C 327.957 88.023,328.453 90.174,327.822 91.685 C 327.198 93.178,327.536 93.119,319.229 93.187 C 312.843 93.239,311.703 93.296,311.532 93.567 C 311.207 94.081,311.262 107.750,311.590 107.962 C 311.736 108.057,315.859 108.182,320.753 108.240 L 329.650 108.347 330.056 108.849 C 330.512 109.411,330.650 112.823,330.259 113.851 C 329.898 114.800,329.182 114.852,317.335 114.787 L 306.326 114.726 305.442 114.015 C 304.230 113.040,304.312 114.712,304.317 91.015 C 304.322 67.458,304.226 69.026,305.712 68.126 L 306.539 67.626 317.703 67.625 C 328.395 67.625,328.896 67.643,329.547 68.040 M188.189 69.421 C 188.648 69.973,188.206 70.682,184.425 75.464 C 183.812 76.240,183.143 77.113,182.938 77.406 C 182.732 77.698,182.036 78.655,181.390 79.532 C 179.564 82.013,179.023 82.806,177.951 84.581 C 176.272 87.359,173.665 91.989,172.830 93.674 C 171.686 95.981,169.701 100.560,169.695 100.904 C 169.693 101.021,169.406 101.680,169.056 102.369 C 168.707 103.058,168.421 103.761,168.421 103.932 C 168.421 104.102,168.285 104.543,168.118 104.912 C 167.952 105.281,167.473 106.635,167.055 107.921 C 166.637 109.208,166.191 110.548,166.063 110.898 C 165.935 111.249,165.609 112.377,165.339 113.404 C 165.069 114.431,164.754 115.387,164.640 115.530 C 164.525 115.673,164.335 116.316,164.217 116.959 C 164.099 117.602,163.647 119.468,163.212 121.106 C 162.778 122.743,162.336 124.657,162.229 125.359 C 162.123 126.061,161.946 126.922,161.835 127.273 C 161.315 128.925,159.436 140.705,159.055 144.710 C 158.932 145.997,158.697 147.719,158.533 148.538 C 158.368 149.357,158.126 151.845,157.994 154.067 C 157.863 156.289,157.676 158.921,157.579 159.915 C 157.481 160.909,157.291 165.646,157.155 170.441 C 157.019 175.237,156.862 179.476,156.805 179.862 C 156.577 181.410,155.220 180.786,154.699 178.893 C 154.514 178.221,154.261 177.432,154.136 177.140 C 154.011 176.847,153.782 176.130,153.627 175.545 C 153.472 174.960,153.159 173.907,152.931 173.206 C 151.568 169.011,151.601 169.243,151.817 165.444 C 152.243 157.967,152.907 149.743,153.209 148.219 C 153.383 147.342,153.624 145.619,153.744 144.391 C 153.865 143.163,154.102 141.393,154.270 140.457 C 154.439 139.522,154.678 138.064,154.802 137.217 C 154.926 136.371,155.160 135.270,155.323 134.772 C 155.486 134.273,155.680 133.386,155.754 132.802 C 155.951 131.247,156.855 127.342,158.241 122.063 C 159.657 116.672,160.148 106.967,159.296 101.256 C 159.057 99.659,158.798 97.682,158.719 96.863 C 158.640 96.045,158.448 95.010,158.293 94.563 C 158.137 94.117,157.947 93.112,157.870 92.330 C 157.793 91.549,157.563 90.574,157.359 90.165 C 157.155 89.755,156.919 88.990,156.833 88.464 C 156.748 87.937,156.539 87.172,156.369 86.762 C 156.199 86.353,155.970 85.546,155.859 84.970 C 155.749 84.393,155.519 83.767,155.348 83.579 C 155.178 83.390,154.928 82.714,154.793 82.075 C 154.658 81.437,154.463 80.753,154.360 80.555 C 154.121 80.099,154.455 79.875,155.126 80.044 C 155.470 80.130,155.710 80.421,155.888 80.967 C 156.030 81.406,156.318 82.010,156.528 82.310 C 156.738 82.609,156.977 83.135,157.060 83.479 C 157.143 83.823,157.376 84.439,157.577 84.848 C 157.779 85.258,158.005 85.933,158.081 86.349 C 158.156 86.765,158.407 87.477,158.639 87.932 C 158.871 88.387,159.116 89.099,159.184 89.515 C 159.251 89.931,159.485 90.797,159.703 91.441 C 159.921 92.084,160.160 93.069,160.234 93.629 C 160.308 94.189,160.509 94.983,160.681 95.394 C 160.852 95.804,161.130 97.312,161.297 98.745 C 161.465 100.177,161.709 101.848,161.840 102.457 C 161.970 103.066,162.145 104.593,162.227 105.850 L 162.377 108.134 163.197 106.433 C 164.223 104.305,164.718 103.177,164.917 102.512 C 165.437 100.778,170.717 90.278,171.877 88.672 C 172.081 88.388,172.249 88.085,172.249 87.997 C 172.249 87.910,172.715 87.142,173.285 86.290 C 173.855 85.439,174.665 84.216,175.085 83.573 C 177.867 79.314,180.141 76.422,183.413 72.978 C 186.528 69.699,187.074 69.220,187.800 69.129 C 187.873 69.120,188.048 69.251,188.189 69.421 M202.517 80.157 C 203.230 80.428,203.543 81.486,203.507 83.511 C 203.444 87.140,203.277 86.975,207.009 86.975 C 210.238 86.975,210.659 87.142,210.878 88.505 C 211.256 90.870,210.720 91.228,206.802 91.228 C 203.173 91.228,203.509 90.398,203.509 99.368 C 203.509 109.803,204.280 111.445,208.488 109.966 C 210.610 109.220,211.633 110.663,210.650 113.015 C 209.931 114.737,204.490 115.405,202.264 114.044 C 200.605 113.030,200.255 112.732,199.697 111.855 C 198.586 110.111,198.405 108.406,198.405 99.693 C 198.405 90.701,198.568 91.330,196.197 91.187 C 192.906 90.987,193.015 86.975,196.311 86.975 C 198.385 86.975,198.405 86.947,198.408 84.044 C 198.413 80.312,199.707 79.088,202.517 80.157 M150.473 86.754 C 153.159 87.137,154.804 88.380,154.975 90.154 C 155.172 92.207,154.145 92.814,152.302 91.734 C 149.551 90.121,145.445 90.260,144.125 92.009 C 142.646 93.972,143.626 96.126,146.624 97.500 C 149.664 98.894,150.020 99.050,150.478 99.186 C 152.440 99.769,154.821 101.719,155.643 103.416 C 157.238 106.711,155.177 112.376,151.949 113.568 C 151.593 113.700,151.049 113.942,150.740 114.106 C 146.927 116.132,138.216 114.082,138.011 111.110 C 137.802 108.095,138.302 107.792,141.156 109.202 C 145.636 111.417,149.758 110.880,150.883 107.936 C 151.662 105.896,150.515 104.360,147.156 102.948 C 145.620 102.302,145.099 102.066,142.812 100.977 C 137.483 98.441,136.973 91.322,141.884 88.043 C 143.287 87.106,144.007 86.862,146.207 86.581 C 147.739 86.386,147.950 86.394,150.473 86.754 M186.816 86.663 C 190.195 86.979,192.026 88.356,192.026 90.582 C 192.026 92.246,190.933 92.666,189.181 91.676 C 185.122 89.384,180.365 90.717,180.580 94.087 C 180.702 96.011,181.675 96.790,186.284 98.656 C 191.774 100.879,192.982 102.323,192.982 106.661 C 192.982 109.822,192.777 110.343,190.786 112.243 C 186.822 116.023,176.104 115.480,175.017 111.444 C 174.470 109.411,175.482 107.781,176.833 108.520 C 181.952 111.317,186.382 111.226,187.771 108.296 C 188.893 105.927,187.209 103.818,183.125 102.481 C 182.348 102.227,181.568 101.901,181.393 101.757 C 181.217 101.613,180.768 101.393,180.394 101.268 C 175.355 99.579,173.846 92.693,177.706 88.995 C 179.302 87.465,182.837 86.199,184.795 86.454 C 185.088 86.493,185.997 86.587,186.816 86.663 M230.335 87.390 C 232.438 88.281,234.231 89.964,235.267 92.018 C 236.474 94.411,237.110 99.195,236.407 100.585 C 235.872 101.644,235.579 101.677,226.927 101.656 C 217.562 101.633,218.269 101.445,218.455 103.899 C 218.651 106.493,220.023 108.647,222.181 109.751 C 224.314 110.841,232.019 110.228,233.589 108.844 C 234.957 107.636,236.259 110.629,235.121 112.366 C 234.482 113.341,231.546 114.315,228.183 114.666 C 217.593 115.773,212.039 109.899,213.075 98.684 C 213.601 92.982,215.860 89.372,220.088 87.479 C 222.741 86.290,227.640 86.248,230.335 87.390 M258.380 87.233 C 259.625 87.816,261.006 88.991,261.763 90.112 C 262.283 90.882,262.926 91.009,263.249 90.406 C 263.366 90.188,264.159 89.475,265.011 88.822 C 269.764 85.182,275.896 85.951,278.448 90.507 C 279.904 93.108,280.700 112.207,279.420 113.835 C 278.666 114.793,275.938 114.797,275.144 113.842 C 274.912 113.563,274.832 111.643,274.747 104.327 L 274.641 95.162 274.082 93.993 C 272.126 89.898,268.570 89.952,264.859 94.132 L 263.583 95.570 263.477 104.440 C 263.372 113.176,263.364 113.319,262.907 113.844 C 262.076 114.799,259.133 114.783,258.661 113.820 C 258.561 113.617,258.430 109.383,258.369 104.413 C 258.270 96.325,258.219 95.297,257.882 94.631 C 257.675 94.221,257.342 93.555,257.142 93.150 C 255.551 89.930,251.965 90.281,248.528 93.993 C 246.790 95.871,246.875 95.290,246.898 105.129 C 246.917 113.364,246.915 113.396,246.449 113.892 C 245.569 114.829,242.733 114.743,242.208 113.763 C 241.914 113.213,241.911 87.961,242.206 87.411 C 242.643 86.595,245.624 86.623,246.065 87.448 C 246.189 87.681,246.318 88.268,246.351 88.752 C 246.433 89.982,246.420 89.952,246.867 89.952 C 247.088 89.952,247.734 89.535,248.302 89.025 C 251.043 86.564,255.324 85.803,258.380 87.233 M222.998 90.899 C 220.907 91.499,218.829 94.046,218.493 96.423 C 218.257 98.086,218.179 98.066,224.880 98.010 C 232.374 97.947,232.124 98.077,231.041 94.823 C 229.904 91.409,226.688 89.840,222.998 90.899 " stroke="none" fill="#fbfbfb" fill-rule="evenodd"></path><path id="path2" d="M116.215 26.656 C 111.826 28.287,109.383 30.004,107.059 33.093 C 99.776 42.769,100.136 61.285,107.767 69.578 C 113.460 75.764,124.967 77.004,133.779 72.382 C 136.243 71.089,136.616 70.537,136.702 68.064 C 136.817 64.730,136.340 64.520,133.310 66.568 C 125.900 71.574,116.778 70.699,112.177 64.540 C 107.899 58.813,107.138 47.663,110.475 39.599 C 111.963 36.004,114.854 33.123,118.342 31.764 C 121.655 30.472,128.266 31.129,131.207 33.043 C 131.616 33.309,132.382 33.795,132.908 34.122 C 133.434 34.449,134.070 34.903,134.320 35.130 C 135.694 36.377,136.886 34.975,136.657 32.382 C 136.412 29.610,134.978 28.402,129.825 26.629 C 127.596 25.862,122.505 24.943,124.402 25.650 C 124.577 25.716,125.008 25.893,125.359 26.045 C 125.710 26.197,126.667 26.432,127.485 26.568 C 129.032 26.825,131.426 27.512,132.164 27.911 C 132.398 28.037,133.020 28.363,133.546 28.634 C 135.494 29.638,136.055 30.412,136.235 32.347 C 136.414 34.273,135.552 36.097,134.935 35.098 C 134.772 34.835,130.668 32.111,130.431 32.109 C 130.331 32.109,129.983 31.969,129.656 31.798 C 129.330 31.628,128.708 31.429,128.274 31.356 C 127.840 31.282,127.167 31.079,126.777 30.904 C 125.301 30.240,119.613 30.366,119.177 31.072 C 119.113 31.175,118.866 31.260,118.627 31.260 C 118.389 31.260,117.940 31.398,117.630 31.567 C 117.319 31.736,116.684 32.045,116.217 32.254 C 115.320 32.654,111.909 35.903,111.408 36.835 C 111.245 37.138,110.837 37.897,110.501 38.523 C 109.607 40.190,108.661 43.244,108.437 45.189 C 108.329 46.124,108.149 47.321,108.037 47.847 C 107.773 49.089,107.775 52.788,108.041 54.014 C 108.155 54.540,108.337 55.596,108.445 56.361 C 108.786 58.762,110.292 62.872,111.156 63.758 C 111.307 63.912,111.430 64.116,111.430 64.210 C 111.430 64.877,115.641 68.657,116.411 68.681 C 116.518 68.684,116.762 68.827,116.951 68.999 C 118.109 70.046,124.897 70.478,127.787 69.688 C 129.458 69.232,131.989 67.984,133.793 66.729 C 135.410 65.603,135.759 65.456,136.072 65.769 C 136.361 66.058,136.393 69.292,136.114 70.027 C 135.843 70.740,132.820 72.614,131.100 73.134 C 130.750 73.240,129.750 73.582,128.879 73.894 C 124.765 75.366,117.114 74.788,112.706 72.673 C 110.240 71.490,106.114 67.722,106.114 66.653 C 106.114 66.577,105.827 66.090,105.476 65.570 C 105.125 65.051,104.838 64.573,104.838 64.508 C 104.838 64.444,104.702 64.090,104.536 63.722 C 102.317 58.801,101.652 47.975,103.233 42.531 C 103.386 42.004,103.687 40.952,103.901 40.191 C 104.115 39.431,104.413 38.570,104.563 38.278 C 104.713 37.985,104.836 37.631,104.837 37.490 C 104.837 37.349,105.053 36.900,105.316 36.493 C 105.579 36.085,106.034 35.349,106.326 34.856 C 107.699 32.542,111.574 28.708,112.540 28.708 C 112.636 28.708,113.071 28.487,113.508 28.216 C 114.450 27.632,116.451 26.959,118.683 26.477 C 119.572 26.285,120.673 25.994,121.128 25.832 L 121.956 25.537 120.574 25.543 C 119.441 25.548,118.656 25.749,116.215 26.656 M154.599 26.572 C 145.367 29.844,141.058 36.552,140.447 48.604 C 139.559 66.135,146.774 75.279,161.494 75.279 C 175.435 75.279,182.990 67.012,183.456 51.249 C 183.824 38.818,179.741 29.943,172.456 27.335 C 168.956 26.082,167.062 25.519,166.359 25.520 L 165.550 25.521 166.188 25.854 C 166.539 26.037,167.687 26.384,168.740 26.623 C 169.793 26.863,170.750 27.135,170.867 27.227 C 170.984 27.319,171.435 27.461,171.869 27.542 C 172.304 27.623,172.770 27.823,172.905 27.986 C 173.041 28.149,173.246 28.283,173.360 28.283 C 173.475 28.283,173.995 28.570,174.515 28.921 C 175.035 29.272,175.527 29.560,175.609 29.562 C 175.936 29.568,178.172 32.098,179.176 33.599 C 180.393 35.417,180.571 35.784,181.439 38.278 C 182.080 40.117,182.199 40.611,182.771 43.806 C 183.136 45.845,183.203 53.177,182.873 54.971 C 182.766 55.556,182.617 56.512,182.542 57.097 C 182.272 59.212,180.576 64.049,179.641 65.369 C 179.318 65.826,179.054 66.276,179.054 66.370 C 179.054 66.846,176.909 69.408,175.544 70.562 C 174.669 71.302,171.804 72.915,170.760 73.255 C 170.117 73.464,169.304 73.781,168.953 73.960 C 167.071 74.916,155.338 74.987,154.102 74.050 C 153.966 73.947,153.248 73.647,152.506 73.383 C 151.255 72.938,150.777 72.699,148.851 71.558 C 145.629 69.648,142.748 64.933,141.706 59.862 C 140.916 56.016,140.681 46.866,141.299 44.050 C 141.470 43.273,141.703 42.158,141.817 41.574 C 142.848 36.287,146.846 30.560,150.872 28.601 C 151.460 28.315,152.084 27.991,152.259 27.881 C 152.754 27.570,155.240 26.818,156.614 26.565 C 157.295 26.439,158.195 26.152,158.615 25.927 L 159.377 25.518 158.423 25.537 C 157.867 25.547,156.271 25.980,154.599 26.572 M83.147 26.156 C 70.776 26.270,70.433 26.301,70.032 27.346 C 69.837 27.853,70.063 27.887,70.558 27.427 C 71.434 26.611,71.884 26.582,83.688 26.582 L 95.259 26.582 95.589 27.086 C 96.233 28.068,96.250 29.660,95.625 30.285 L 95.075 30.835 86.014 30.835 C 77.002 30.835,76.317 30.883,75.867 31.558 C 75.781 31.686,75.709 35.110,75.708 39.166 C 75.704 47.231,75.699 47.197,76.942 47.219 C 77.256 47.224,80.927 47.220,85.102 47.209 C 93.793 47.187,93.142 47.024,93.142 49.229 C 93.142 51.419,93.854 51.249,84.676 51.249 C 77.756 51.249,76.585 51.295,76.177 51.580 L 75.704 51.911 75.704 60.585 C 75.704 68.718,75.729 69.281,76.093 69.611 C 76.443 69.927,77.448 69.963,86.083 69.963 L 95.684 69.963 96.033 70.496 C 96.447 71.127,96.373 73.334,95.921 73.879 C 95.672 74.179,94.334 74.216,83.662 74.216 L 71.683 74.216 70.880 73.671 C 70.058 73.113,69.551 73.324,70.313 73.907 C 71.217 74.599,72.269 74.652,84.110 74.593 C 95.320 74.538,95.956 74.514,96.227 74.143 C 96.863 73.273,96.863 70.906,96.227 70.036 C 95.959 69.668,95.350 69.637,86.258 69.537 C 80.033 69.469,76.498 69.353,76.357 69.212 C 75.979 68.834,76.006 52.557,76.385 52.179 C 76.639 51.925,77.998 51.874,84.512 51.876 C 89.381 51.878,92.486 51.798,92.736 51.664 C 93.861 51.062,94.123 48.308,93.148 47.333 C 92.716 46.902,92.500 46.889,84.859 46.853 C 79.581 46.828,76.868 46.738,76.571 46.580 C 75.954 46.250,75.870 32.166,76.481 31.658 C 76.766 31.422,78.622 31.357,86.171 31.319 L 95.509 31.272 95.913 30.788 C 96.480 30.108,96.513 27.231,95.960 26.748 C 95.197 26.083,94.526 26.052,83.147 26.156 M158.882 30.436 C 158.255 30.540,157.490 30.757,157.181 30.917 C 156.872 31.078,156.093 31.433,155.449 31.707 C 152.378 33.012,149.248 36.613,148.040 40.229 C 146.515 44.795,145.984 52.004,146.841 56.519 C 147.269 58.779,148.539 62.753,149.037 63.392 C 149.256 63.672,149.600 64.224,149.802 64.618 C 152.780 70.422,163.497 72.417,169.826 68.346 C 173.375 66.063,176.090 61.719,176.709 57.336 C 176.810 56.620,176.993 55.651,177.117 55.183 C 177.412 54.069,177.420 45.835,177.127 44.868 C 177.004 44.460,176.810 43.509,176.697 42.755 C 175.937 37.682,171.810 32.239,168.041 31.339 C 167.724 31.263,167.355 31.116,167.222 31.012 C 166.362 30.338,161.495 30.001,158.882 30.436 M166.327 31.232 C 173.256 33.044,176.513 38.547,176.854 49.016 C 177.311 63.082,171.622 70.416,160.659 69.895 C 151.495 69.459,146.962 63.013,146.948 50.399 C 146.937 39.924,151.144 32.657,158.043 31.233 C 158.663 31.105,159.506 30.920,159.915 30.822 C 161.079 30.542,164.534 30.763,166.327 31.232 M289.952 68.021 C 289.601 68.113,289.099 68.303,288.836 68.445 L 288.357 68.702 288.357 91.004 L 288.357 113.306 289.012 113.857 C 290.337 114.972,293.873 114.573,294.428 113.246 C 294.753 112.468,294.913 71.947,294.600 69.663 C 294.400 68.204,292.212 67.431,289.952 68.021 M306.964 68.152 C 306.847 68.192,306.496 68.280,306.184 68.349 C 304.651 68.686,304.732 67.421,304.732 91.080 C 304.732 103.571,304.812 112.466,304.929 112.772 C 305.473 114.204,305.389 114.195,317.792 114.195 C 329.957 114.195,330.288 114.165,330.221 113.073 C 330.193 112.616,330.189 112.615,330.104 113.048 C 329.933 113.913,329.017 113.982,317.679 113.982 C 305.934 113.981,305.849 113.972,305.216 112.706 C 305.009 112.292,304.950 107.525,304.947 91.118 L 304.944 70.062 305.483 69.268 L 306.023 68.474 317.470 68.474 C 330.902 68.474,330.037 68.322,330.037 70.683 C 330.037 71.855,329.969 72.075,329.448 72.574 L 328.859 73.139 320.100 73.199 C 311.627 73.257,311.331 73.273,311.021 73.684 C 310.586 74.259,310.533 86.341,310.961 87.188 L 311.230 87.719 318.845 87.826 L 326.460 87.932 326.866 88.434 C 327.435 89.136,327.434 91.195,326.866 91.896 L 326.458 92.398 318.979 92.398 L 311.499 92.398 311.092 92.900 C 310.710 93.372,310.686 93.831,310.686 100.724 L 310.686 108.047 311.208 108.569 L 311.730 109.091 320.113 109.091 C 329.192 109.091,329.767 109.133,330.042 109.812 C 330.151 110.083,330.227 110.134,330.233 109.942 C 330.271 108.763,329.495 108.666,320.016 108.666 L 311.546 108.666 311.212 108.155 C 310.761 107.467,310.825 93.555,311.281 93.099 C 311.493 92.887,313.318 92.798,319.126 92.717 L 326.696 92.610 327.144 92.010 C 327.796 91.135,327.740 88.868,327.047 88.131 L 326.561 87.613 319.075 87.613 C 312.374 87.613,311.558 87.576,311.297 87.262 C 310.924 86.813,310.740 75.085,311.092 74.161 L 311.313 73.578 319.846 73.578 C 330.367 73.578,330.255 73.608,330.247 70.746 C 330.240 67.946,330.796 68.065,317.774 68.073 C 311.946 68.077,307.081 68.112,306.964 68.152 M293.960 68.660 C 294.571 69.168,294.491 113.115,293.878 113.670 C 293.028 114.439,289.905 114.359,289.032 113.546 L 288.570 113.115 288.573 91.167 C 288.575 79.095,288.649 69.104,288.739 68.963 C 289.196 68.245,293.182 68.013,293.960 68.660 M199.628 81.038 C 199.304 81.227,199.256 81.611,199.256 84.022 C 199.256 87.698,198.814 88.281,196.288 87.933 C 195.121 87.773,194.790 88.068,194.790 89.267 C 194.790 90.258,195.352 90.590,197.040 90.593 C 199.337 90.598,199.133 89.747,199.268 99.886 C 199.386 108.820,199.458 109.665,200.231 111.261 C 201.868 114.641,210.101 115.036,210.101 111.734 C 210.101 110.524,209.750 110.268,208.695 110.711 C 206.727 111.536,204.760 110.987,203.615 109.292 L 202.977 108.347 202.917 99.764 C 202.873 93.508,202.923 91.102,203.103 90.886 C 203.292 90.658,204.067 90.590,206.504 90.590 C 210.034 90.590,210.101 90.561,210.101 89.022 C 210.101 87.981,209.943 87.932,206.572 87.932 C 202.644 87.932,202.871 88.155,202.871 84.298 C 202.871 81.501,202.837 81.230,202.459 81.028 C 201.935 80.748,200.115 80.754,199.628 81.038 M145.029 87.548 C 142.709 88.292,142.186 88.563,141.243 89.509 C 139.098 91.661,138.615 95.776,140.269 97.818 C 141.393 99.206,143.865 101.010,144.642 101.010 C 144.803 101.010,145.123 101.141,145.354 101.302 C 145.585 101.462,146.108 101.666,146.518 101.753 C 147.366 101.935,149.483 103.036,149.837 103.479 C 149.967 103.642,150.166 103.775,150.279 103.775 C 150.984 103.775,151.944 105.680,151.929 107.051 C 151.912 108.616,150.426 110.621,149.070 110.908 C 148.777 110.969,148.086 111.169,147.533 111.351 C 145.714 111.950,142.119 110.998,139.671 109.270 C 138.814 108.665,138.335 109.915,138.782 111.585 C 139.239 113.288,145.474 114.530,149.156 113.651 C 152.870 112.765,154.244 111.475,155.342 107.844 C 156.116 105.282,154.140 101.370,151.668 100.570 C 151.233 100.429,150.447 100.088,149.922 99.812 C 149.397 99.535,148.804 99.309,148.605 99.309 C 148.407 99.309,148.191 99.222,148.125 99.116 C 148.059 99.010,147.565 98.773,147.025 98.589 C 144.733 97.808,142.816 95.998,142.551 94.364 C 142.425 93.586,142.798 92.079,143.118 92.079 C 143.218 92.079,143.359 91.892,143.431 91.664 C 144.119 89.496,148.484 89.005,151.967 90.703 C 153.863 91.627,154.176 91.574,154.166 90.331 C 154.148 87.993,148.760 86.352,145.029 87.548 M181.681 87.700 C 175.451 89.374,174.335 96.276,179.694 99.992 C 180.502 100.552,181.334 101.011,181.544 101.011 C 181.753 101.012,182.177 101.144,182.485 101.305 C 182.794 101.466,183.551 101.766,184.169 101.971 C 188.857 103.528,190.359 107.357,187.359 110.103 C 186.943 110.484,186.364 110.850,186.071 110.917 C 185.779 110.984,185.300 111.121,185.008 111.221 C 183.952 111.583,183.183 111.648,182.243 111.455 C 180.064 111.006,178.668 110.524,177.533 109.828 C 176.034 108.908,175.917 108.911,175.738 109.867 C 175.355 111.906,176.469 112.914,179.904 113.635 C 186.930 115.108,192.520 111.917,192.526 106.429 C 192.528 105.062,191.753 102.977,190.975 102.252 C 190.758 102.050,190.547 101.804,190.505 101.706 C 190.408 101.473,186.382 99.518,184.476 98.779 C 180.353 97.179,178.717 94.844,179.979 92.355 C 181.463 89.425,185.100 88.751,188.905 90.701 C 190.771 91.656,191.115 91.655,191.296 90.692 C 191.787 88.074,186.458 86.416,181.681 87.700 M223.073 87.399 C 222.780 87.496,221.908 87.767,221.133 88.000 C 215.690 89.639,212.107 98.009,214.017 104.625 C 214.203 105.268,214.499 106.326,214.675 106.976 C 215.657 110.597,218.203 112.762,222.548 113.667 C 226.647 114.522,234.261 113.212,234.670 111.581 C 235.165 109.611,234.544 109.278,232.217 110.266 C 228.551 111.821,223.630 111.725,221.190 110.052 C 219.876 109.151,218.222 107.083,218.050 106.127 C 217.975 105.710,217.814 105.245,217.693 105.092 C 217.572 104.939,217.428 104.056,217.375 103.130 C 217.244 100.878,216.655 101.010,226.803 101.010 L 235.184 101.010 235.536 100.474 C 236.381 99.184,235.294 92.892,233.914 91.082 C 231.759 88.256,226.180 86.361,223.073 87.399 M251.568 87.903 C 250.691 88.270,249.591 88.921,249.123 89.350 C 246.587 91.675,245.454 91.773,245.674 89.646 C 245.835 88.081,245.550 87.719,244.152 87.719 C 243.118 87.719,242.269 88.253,242.559 88.721 C 242.612 88.807,242.657 94.328,242.658 100.989 C 242.661 110.906,242.714 113.143,242.949 113.338 C 243.419 113.728,244.708 113.844,245.398 113.558 L 246.039 113.292 246.039 104.512 L 246.039 95.732 246.871 94.703 C 250.766 89.882,254.361 88.812,257.006 91.688 C 259.022 93.880,259.220 95.123,259.229 105.693 L 259.236 113.281 259.772 113.525 C 260.464 113.841,261.325 113.831,261.966 113.500 L 262.476 113.238 262.509 104.625 C 262.546 95.399,262.655 94.507,263.803 94.067 C 263.972 94.002,264.389 93.570,264.729 93.107 C 266.425 90.801,270.058 89.507,271.983 90.523 C 275.174 92.208,275.456 93.315,275.516 104.413 C 275.541 109.032,275.570 112.928,275.580 113.070 C 275.607 113.457,277.153 113.844,278.021 113.681 C 279.070 113.484,279.038 113.847,278.956 103.013 L 278.884 93.461 278.145 91.817 C 275.622 86.205,268.855 85.639,264.080 90.641 C 262.697 92.089,262.015 92.058,261.030 90.500 C 259.158 87.539,255.100 86.425,251.568 87.903 M228.070 90.307 C 231.113 91.882,233.349 96.220,232.100 98.125 L 231.743 98.671 224.871 98.671 C 216.144 98.671,216.204 98.714,218.447 94.042 C 220.230 90.329,224.735 88.581,228.070 90.307 M156.576 166.082 C 156.576 166.725,156.616 166.988,156.665 166.667 C 156.714 166.345,156.714 165.819,156.665 165.497 C 156.616 165.175,156.576 165.439,156.576 166.082 " stroke="none" fill="#7c7c7c" fill-rule="evenodd"></path><path id="path3" d="M119.617 25.306 C 117.666 25.452,115.757 25.973,114.254 26.771 C 114.046 26.881,113.349 27.229,112.706 27.544 C 110.714 28.520,108.316 30.524,107.021 32.296 C 106.711 32.720,106.248 33.307,105.992 33.599 C 102.074 38.079,99.899 52.222,102.072 59.083 C 102.307 59.825,102.502 60.638,102.506 60.891 C 102.510 61.144,102.698 61.733,102.924 62.201 C 103.150 62.669,103.338 63.179,103.342 63.334 C 103.346 63.490,103.791 64.447,104.330 65.461 C 107.259 70.964,111.253 73.906,117.992 75.526 C 119.686 75.933,126.838 75.637,128.316 75.099 C 129.007 74.847,129.706 74.641,129.870 74.641 C 130.242 74.641,131.772 73.992,133.440 73.128 C 136.776 71.399,137.374 70.572,137.374 67.689 C 137.374 64.567,135.802 63.725,133.655 65.698 C 132.983 66.316,129.768 68.020,128.793 68.275 C 128.308 68.403,127.501 68.643,126.999 68.809 C 125.957 69.156,121.142 69.223,119.936 68.908 C 116.989 68.137,115.474 67.344,113.952 65.772 C 112.987 64.776,111.005 62.025,111.005 61.683 C 111.005 61.588,110.813 61.077,110.578 60.546 C 108.032 54.791,108.629 43.233,111.727 38.278 C 113.939 34.740,114.956 33.863,118.739 32.226 C 122.311 30.680,129.156 31.917,132.908 34.787 C 135.345 36.651,136.560 36.503,137.131 34.274 C 137.905 31.254,136.605 29.067,133.014 27.346 C 128.885 25.368,125.562 24.862,119.617 25.306 M157.576 25.284 C 153.561 25.669,148.359 28.484,145.626 31.748 C 144.339 33.287,143.541 34.386,143.541 34.620 C 143.541 34.729,143.362 35.046,143.143 35.325 C 142.685 35.909,141.415 38.986,141.413 39.516 C 141.412 39.712,141.261 40.159,141.077 40.510 C 139.607 43.317,139.484 57.042,140.895 60.857 C 141.082 61.362,141.309 62.111,141.400 62.520 C 141.679 63.777,142.598 65.758,143.766 67.624 C 146.311 71.685,151.358 74.798,156.725 75.614 C 164.959 76.867,172.482 74.824,177.422 69.995 C 178.337 69.100,179.324 67.937,179.615 67.411 C 179.905 66.885,180.391 66.023,180.694 65.497 C 183.869 59.986,185.285 46.317,183.239 40.936 C 183.061 40.468,182.855 39.702,182.781 39.234 C 182.520 37.587,181.059 34.474,179.689 32.642 C 179.339 32.174,178.897 31.552,178.706 31.260 C 177.608 29.573,173.861 27.204,170.229 25.902 C 168.390 25.243,161.510 24.907,157.576 25.284 M70.757 25.992 C 69.487 26.728,69.523 25.956,69.586 50.991 C 69.650 76.205,69.538 74.383,71.046 74.835 C 72.524 75.278,95.582 75.189,96.271 74.737 C 97.697 73.803,97.762 70.699,96.380 69.468 C 95.971 69.105,95.369 69.082,86.780 69.103 C 80.650 69.118,77.475 69.051,77.192 68.899 C 76.743 68.659,76.511 53.260,76.946 52.574 C 77.078 52.366,78.945 52.288,85.131 52.234 C 94.076 52.156,93.697 52.223,94.173 50.636 C 94.502 49.536,94.481 48.689,94.102 47.781 C 93.494 46.326,93.699 46.358,85.021 46.358 C 77.514 46.358,77.199 46.342,76.988 45.947 C 76.524 45.081,76.704 32.446,77.186 32.010 C 77.579 31.655,78.105 31.641,85.666 31.788 C 93.889 31.948,95.689 31.873,96.216 31.346 C 97.225 30.336,97.064 26.809,95.970 25.948 C 95.080 25.248,71.970 25.289,70.757 25.992 M129.825 26.618 C 134.994 28.417,136.412 29.614,136.657 32.382 C 136.886 34.975,135.694 36.377,134.320 35.130 C 134.070 34.903,133.434 34.449,132.908 34.122 C 132.382 33.795,131.616 33.309,131.207 33.043 C 128.266 31.129,121.655 30.472,118.342 31.764 C 114.854 33.123,111.963 36.004,110.475 39.599 C 107.138 47.663,107.899 58.813,112.177 64.540 C 116.778 70.699,125.900 71.574,133.310 66.568 C 136.340 64.520,136.817 64.730,136.702 68.064 C 136.616 70.537,136.243 71.089,133.779 72.382 C 124.967 77.004,113.460 75.764,107.767 69.578 C 100.136 61.285,99.776 42.769,107.059 33.093 C 109.380 30.009,111.823 28.290,116.215 26.651 L 119.192 25.540 123.126 25.598 L 127.060 25.657 129.825 26.618 M169.336 26.256 C 173.112 27.542,173.378 27.656,174.815 28.612 C 181.032 32.744,183.789 39.970,183.456 51.249 C 182.990 67.012,175.435 75.279,161.494 75.279 C 146.774 75.279,139.559 66.135,140.447 48.604 C 141.058 36.552,145.367 29.844,154.599 26.572 L 157.469 25.555 162.319 25.537 L 167.168 25.518 169.336 26.256 M95.960 26.748 C 96.513 27.231,96.480 30.108,95.913 30.788 L 95.509 31.272 86.171 31.319 C 78.622 31.357,76.766 31.422,76.481 31.658 C 75.870 32.166,75.954 46.250,76.571 46.580 C 76.868 46.738,79.581 46.828,84.859 46.853 C 92.500 46.889,92.716 46.902,93.148 47.333 C 94.123 48.308,93.861 51.062,92.736 51.664 C 92.486 51.798,89.381 51.878,84.512 51.876 C 77.998 51.874,76.639 51.925,76.385 52.179 C 76.006 52.557,75.979 68.834,76.357 69.212 C 76.498 69.353,80.033 69.469,86.258 69.537 C 95.350 69.637,95.959 69.668,96.227 70.036 C 96.863 70.906,96.863 73.273,96.227 74.143 C 95.773 74.764,71.699 74.749,70.672 74.128 C 69.780 73.588,69.843 75.730,69.963 49.985 L 70.069 27.137 70.813 26.700 C 71.533 26.277,71.937 26.259,83.147 26.156 C 94.526 26.052,95.197 26.083,95.960 26.748 M159.915 30.822 C 159.506 30.920,158.663 31.105,158.043 31.233 C 151.144 32.657,146.937 39.924,146.948 50.399 C 146.962 63.013,151.495 69.459,160.659 69.895 C 171.622 70.416,177.311 63.082,176.854 49.016 C 176.555 39.839,174.329 35.084,168.985 32.211 C 166.859 31.068,161.992 30.322,159.915 30.822 M164.291 31.491 C 172.368 32.294,176.289 38.369,176.289 50.080 C 176.289 59.052,174.418 63.862,169.557 67.383 C 165.959 69.989,157.918 70.010,153.841 67.424 C 151.702 66.068,149.586 63.089,148.923 60.500 C 148.743 59.798,148.474 58.985,148.325 58.692 C 147.994 58.042,147.579 53.276,147.587 50.209 C 147.616 38.115,152.082 32.099,161.632 31.288 C 161.817 31.273,163.013 31.364,164.291 31.491 M288.995 67.864 C 288.586 68.112,288.181 68.423,288.095 68.554 C 288.009 68.686,287.937 78.860,287.935 91.163 L 287.932 113.533 288.445 114.130 C 288.941 114.706,289.035 114.729,291.313 114.798 L 293.669 114.870 294.309 114.230 L 294.949 113.589 294.995 92.467 C 295.041 71.262,295.030 69.587,294.849 68.783 C 294.556 67.488,290.632 66.872,288.995 67.864 M305.712 68.126 C 304.226 69.026,304.322 67.458,304.317 91.015 C 304.312 114.712,304.230 113.040,305.442 114.015 L 306.326 114.726 317.335 114.787 C 329.182 114.852,329.898 114.800,330.259 113.851 C 330.650 112.823,330.512 109.411,330.056 108.849 L 329.650 108.347 320.753 108.240 C 315.859 108.182,311.736 108.057,311.590 107.962 C 311.262 107.750,311.207 94.081,311.532 93.567 C 311.703 93.296,312.843 93.239,319.229 93.187 C 327.536 93.119,327.198 93.178,327.822 91.685 C 328.453 90.174,327.957 88.023,326.847 87.463 C 326.451 87.262,324.499 87.193,319.172 87.191 C 312.523 87.188,312.003 87.161,311.676 86.799 C 311.232 86.309,311.132 74.360,311.569 74.089 C 311.704 74.006,315.316 73.949,319.597 73.964 C 330.514 74.000,330.226 74.066,330.409 71.512 C 330.703 67.395,331.455 67.625,317.703 67.625 L 306.539 67.626 305.712 68.126 M293.812 68.330 C 294.755 68.817,294.737 68.366,294.737 91.584 C 294.737 114.369,294.770 113.737,293.564 114.196 C 292.356 114.655,289.727 114.459,289.012 113.857 L 288.357 113.306 288.357 91.004 L 288.357 68.702 288.836 68.445 C 290.084 67.774,292.624 67.715,293.812 68.330 M329.183 68.391 C 330.091 68.755,330.243 69.090,330.247 70.746 C 330.255 73.608,330.367 73.578,319.846 73.578 L 311.313 73.578 311.092 74.161 C 310.740 75.085,310.924 86.813,311.297 87.262 C 311.558 87.576,312.374 87.613,319.075 87.613 L 326.561 87.613 327.047 88.131 C 327.740 88.868,327.796 91.135,327.144 92.010 L 326.696 92.610 319.126 92.717 C 313.318 92.798,311.493 92.887,311.281 93.099 C 310.825 93.555,310.761 107.467,311.212 108.155 L 311.546 108.666 320.016 108.666 C 330.816 108.666,330.241 108.502,330.247 111.584 C 330.251 114.421,331.333 114.195,317.792 114.195 C 305.389 114.195,305.473 114.204,304.929 112.772 C 304.812 112.466,304.732 103.571,304.732 91.080 C 304.732 67.421,304.651 68.686,306.184 68.349 C 306.496 68.280,306.847 68.192,306.964 68.152 C 307.786 67.873,328.443 68.095,329.183 68.391 M187.347 69.261 C 186.859 69.438,186.051 70.202,183.413 72.978 C 180.141 76.422,177.867 79.314,175.085 83.573 C 174.665 84.216,173.855 85.439,173.285 86.290 C 172.715 87.142,172.249 87.910,172.249 87.997 C 172.249 88.085,172.081 88.388,171.877 88.672 C 170.717 90.278,165.437 100.778,164.917 102.512 C 164.718 103.177,164.223 104.305,163.197 106.433 L 162.377 108.134 162.227 105.850 C 162.145 104.593,161.970 103.066,161.840 102.457 C 161.709 101.848,161.465 100.177,161.297 98.745 C 161.130 97.312,160.852 95.804,160.681 95.394 C 160.509 94.983,160.308 94.189,160.234 93.629 C 160.160 93.069,159.921 92.084,159.703 91.441 C 159.485 90.797,159.251 89.931,159.184 89.515 C 159.116 89.099,158.871 88.387,158.639 87.932 C 158.407 87.477,158.156 86.765,158.081 86.349 C 158.005 85.933,157.779 85.258,157.577 84.848 C 157.376 84.439,157.143 83.823,157.060 83.479 C 156.977 83.135,156.738 82.609,156.528 82.310 C 156.318 82.010,156.030 81.406,155.888 80.967 C 155.710 80.421,155.470 80.130,155.126 80.044 C 154.455 79.875,154.121 80.099,154.360 80.555 C 154.463 80.753,154.658 81.437,154.793 82.075 C 154.928 82.714,155.178 83.390,155.348 83.579 C 155.519 83.767,155.749 84.393,155.859 84.970 C 155.970 85.546,156.199 86.353,156.369 86.762 C 156.539 87.172,156.748 87.937,156.833 88.464 C 156.919 88.990,157.155 89.755,157.359 90.165 C 157.563 90.574,157.793 91.549,157.870 92.330 C 157.947 93.112,158.137 94.117,158.293 94.563 C 158.448 95.010,158.640 96.045,158.719 96.863 C 158.798 97.682,159.057 99.659,159.296 101.256 C 160.148 106.967,159.657 116.672,158.241 122.063 C 157.826 123.646,157.610 124.493,157.050 126.741 C 156.427 129.237,155.883 131.784,155.754 132.802 C 155.680 133.386,155.486 134.273,155.323 134.772 C 155.160 135.270,154.926 136.371,154.802 137.217 C 154.678 138.064,154.439 139.522,154.270 140.457 C 154.102 141.393,153.865 143.163,153.744 144.391 C 153.624 145.619,153.383 147.342,153.209 148.219 C 152.907 149.743,152.243 157.967,151.817 165.444 C 151.601 169.243,151.568 169.011,152.931 173.206 C 153.159 173.907,153.472 174.960,153.627 175.545 C 153.782 176.130,154.011 176.847,154.136 177.140 C 154.261 177.432,154.514 178.221,154.699 178.893 C 155.220 180.786,156.577 181.410,156.805 179.862 C 156.862 179.476,157.019 175.237,157.155 170.441 C 157.291 165.646,157.481 160.909,157.579 159.915 C 157.676 158.921,157.863 156.289,157.994 154.067 C 158.126 151.845,158.368 149.357,158.533 148.538 C 158.697 147.719,158.932 145.997,159.055 144.710 C 159.436 140.705,161.315 128.925,161.835 127.273 C 161.946 126.922,162.123 126.061,162.229 125.359 C 162.336 124.657,162.778 122.743,163.212 121.106 C 163.647 119.468,164.099 117.602,164.217 116.959 C 164.335 116.316,164.525 115.673,164.640 115.530 C 164.754 115.387,165.069 114.431,165.339 113.404 C 165.609 112.377,165.935 111.249,166.063 110.898 C 166.191 110.548,166.637 109.208,167.055 107.921 C 167.473 106.635,167.952 105.281,168.118 104.912 C 168.285 104.543,168.421 104.102,168.421 103.932 C 168.421 103.761,168.707 103.058,169.056 102.369 C 169.406 101.680,169.693 101.021,169.695 100.904 C 169.701 100.560,171.686 95.981,172.830 93.674 C 173.665 91.989,176.272 87.359,177.951 84.581 C 179.023 82.806,179.564 82.013,181.390 79.532 C 182.036 78.655,182.732 77.698,182.938 77.406 C 183.143 77.113,183.812 76.240,184.425 75.464 C 188.206 70.682,188.648 69.973,188.189 69.421 C 187.917 69.093,187.848 69.080,187.347 69.261 M186.786 71.416 C 186.568 71.845,186.120 72.483,185.789 72.834 C 185.458 73.184,184.748 74.094,184.210 74.854 C 183.672 75.614,182.881 76.667,182.453 77.193 C 179.478 80.846,172.768 91.639,172.140 93.780 C 172.054 94.072,171.910 94.407,171.819 94.524 C 171.508 94.926,169.448 99.630,168.700 101.648 C 168.288 102.759,167.739 104.195,167.481 104.838 C 167.222 105.481,166.790 106.725,166.522 107.602 C 166.253 108.480,165.860 109.676,165.648 110.260 C 164.652 113.009,162.229 122.016,161.928 124.086 C 161.844 124.669,161.696 125.299,161.599 125.486 C 161.390 125.890,160.444 130.868,160.006 133.865 C 159.836 135.035,159.555 136.757,159.382 137.693 C 158.864 140.501,158.040 147.060,157.795 150.322 C 157.668 152.004,157.528 153.441,157.482 153.514 C 157.230 153.923,156.303 171.677,156.301 176.144 C 156.300 178.298,156.106 179.266,155.677 179.266 C 155.413 179.266,154.696 177.153,152.985 171.332 L 152.247 168.820 152.577 163.357 C 152.975 156.754,153.261 153.076,153.532 151.090 C 153.644 150.271,153.842 148.454,153.973 147.051 C 154.104 145.649,154.243 144.450,154.281 144.388 C 154.320 144.326,154.552 142.890,154.797 141.197 C 155.043 139.503,155.346 137.687,155.472 137.161 C 155.597 136.635,155.875 135.247,156.090 134.078 C 156.599 131.299,157.538 126.974,157.684 126.738 C 157.747 126.636,157.899 125.997,158.021 125.318 C 158.144 124.639,158.374 123.695,158.531 123.221 C 160.205 118.194,160.768 103.719,159.519 97.820 C 159.078 95.735,158.982 93.124,159.352 93.266 C 159.540 93.338,159.742 93.741,159.807 94.173 C 159.871 94.600,160.059 95.619,160.226 96.438 C 160.739 98.953,161.421 103.888,161.739 107.390 C 161.985 110.099,162.549 110.340,163.347 108.076 C 164.217 105.609,164.395 105.136,164.577 104.817 C 164.683 104.630,165.118 103.625,165.543 102.584 C 168.715 94.825,174.321 85.072,179.398 78.480 C 181.528 75.714,186.269 70.601,186.703 70.601 C 186.823 70.601,186.929 70.481,186.939 70.335 C 186.951 70.141,186.986 70.145,187.069 70.353 C 187.131 70.509,187.004 70.988,186.786 71.416 M199.473 80.231 C 198.600 80.672,198.412 81.346,198.408 84.044 C 198.405 86.947,198.385 86.975,196.311 86.975 C 193.015 86.975,192.906 90.987,196.197 91.187 C 198.568 91.330,198.405 90.701,198.405 99.693 C 198.405 108.406,198.586 110.111,199.697 111.855 C 200.255 112.732,200.605 113.030,202.264 114.044 C 204.490 115.405,209.931 114.737,210.650 113.015 C 211.633 110.663,210.610 109.220,208.488 109.966 C 204.280 111.445,203.509 109.803,203.509 99.368 C 203.509 90.398,203.173 91.228,206.802 91.228 C 210.720 91.228,211.256 90.870,210.878 88.505 C 210.659 87.142,210.238 86.975,207.009 86.975 C 203.277 86.975,203.444 87.140,203.507 83.511 C 203.543 81.486,203.230 80.428,202.517 80.157 C 201.774 79.875,200.096 79.915,199.473 80.231 M202.459 81.028 C 202.837 81.230,202.871 81.501,202.871 84.298 C 202.871 88.155,202.644 87.932,206.572 87.932 C 209.943 87.932,210.101 87.981,210.101 89.022 C 210.101 90.561,210.034 90.590,206.504 90.590 C 204.067 90.590,203.292 90.658,203.103 90.886 C 202.923 91.102,202.873 93.508,202.917 99.764 L 202.977 108.347 203.615 109.292 C 204.760 110.987,206.727 111.536,208.695 110.711 C 209.750 110.268,210.101 110.524,210.101 111.734 C 210.101 115.036,201.868 114.641,200.231 111.261 C 199.458 109.665,199.386 108.820,199.268 99.886 C 199.133 89.747,199.337 90.598,197.040 90.593 C 195.352 90.590,194.790 90.258,194.790 89.267 C 194.790 88.068,195.121 87.773,196.288 87.933 C 198.814 88.281,199.256 87.698,199.256 84.022 C 199.256 81.611,199.304 81.227,199.628 81.038 C 200.115 80.754,201.935 80.748,202.459 81.028 M146.207 86.581 C 144.007 86.862,143.287 87.106,141.884 88.043 C 136.973 91.322,137.483 98.441,142.812 100.977 C 145.099 102.066,145.620 102.302,147.156 102.948 C 150.515 104.360,151.662 105.896,150.883 107.936 C 149.758 110.880,145.636 111.417,141.156 109.202 C 138.302 107.792,137.802 108.095,138.011 111.110 C 138.216 114.082,146.927 116.132,150.740 114.106 C 151.049 113.942,151.593 113.700,151.949 113.568 C 155.177 112.376,157.238 106.711,155.643 103.416 C 154.821 101.719,152.440 99.769,150.478 99.186 C 150.020 99.050,149.664 98.894,146.624 97.500 C 143.626 96.126,142.646 93.972,144.125 92.009 C 145.445 90.260,149.551 90.121,152.302 91.734 C 154.145 92.814,155.172 92.207,154.975 90.154 C 154.764 87.960,153.046 87.007,148.325 86.465 C 147.974 86.425,147.021 86.477,146.207 86.581 M182.669 86.657 C 174.407 88.066,172.750 98.707,180.394 101.268 C 180.768 101.393,181.217 101.613,181.393 101.757 C 181.568 101.901,182.348 102.227,183.125 102.481 C 187.209 103.818,188.893 105.927,187.771 108.296 C 186.382 111.226,181.952 111.317,176.833 108.520 C 175.482 107.781,174.470 109.411,175.017 111.444 C 176.104 115.480,186.822 116.023,190.786 112.243 C 192.777 110.343,192.982 109.822,192.982 106.661 C 192.982 102.323,191.774 100.879,186.284 98.656 C 181.675 96.790,180.702 96.011,180.580 94.087 C 180.365 90.717,185.122 89.384,189.181 91.676 C 190.933 92.666,192.026 92.246,192.026 90.582 C 192.026 88.356,190.195 86.979,186.816 86.663 C 185.997 86.587,185.088 86.493,184.795 86.454 C 184.503 86.416,183.546 86.507,182.669 86.657 M222.320 86.766 C 217.092 87.707,213.683 92.102,213.075 98.684 C 212.039 109.899,217.593 115.773,228.183 114.666 C 231.546 114.315,234.482 113.341,235.121 112.366 C 236.259 110.629,234.957 107.636,233.589 108.844 C 232.019 110.228,224.314 110.841,222.181 109.751 C 220.023 108.647,218.651 106.493,218.455 103.899 C 218.269 101.445,217.562 101.633,226.927 101.656 C 235.579 101.677,235.872 101.644,236.407 100.585 C 237.110 99.195,236.474 94.411,235.267 92.018 C 233.120 87.760,228.104 85.725,222.320 86.766 M252.313 86.737 C 251.177 87.038,249.361 88.074,248.302 89.025 C 247.734 89.535,247.088 89.952,246.867 89.952 C 246.420 89.952,246.433 89.982,246.351 88.752 C 246.318 88.268,246.189 87.681,246.065 87.448 C 245.624 86.623,242.643 86.595,242.206 87.411 C 241.911 87.961,241.914 113.213,242.208 113.763 C 242.733 114.743,245.569 114.829,246.449 113.892 C 246.915 113.396,246.917 113.364,246.898 105.129 C 246.875 95.290,246.790 95.871,248.528 93.993 C 251.965 90.281,255.551 89.930,257.142 93.150 C 257.342 93.555,257.675 94.221,257.882 94.631 C 258.219 95.297,258.270 96.325,258.369 104.413 C 258.430 109.383,258.561 113.617,258.661 113.820 C 259.133 114.783,262.076 114.799,262.907 113.844 C 263.364 113.319,263.372 113.176,263.477 104.440 L 263.583 95.570 264.859 94.132 C 268.570 89.952,272.126 89.898,274.082 93.993 L 274.641 95.162 274.747 104.327 C 274.832 111.643,274.912 113.563,275.144 113.842 C 275.938 114.797,278.666 114.793,279.420 113.835 C 280.105 112.964,280.083 95.874,279.394 93.172 C 277.670 86.413,270.850 84.350,265.011 88.822 C 264.159 89.475,263.366 90.188,263.249 90.406 C 262.926 91.009,262.283 90.882,261.763 90.112 C 259.889 87.337,255.694 85.839,252.313 86.737 M150.525 87.519 C 153.407 88.312,154.155 88.890,154.166 90.331 C 154.176 91.574,153.863 91.627,151.967 90.703 C 148.484 89.005,144.119 89.496,143.431 91.664 C 143.359 91.892,143.218 92.079,143.118 92.079 C 142.798 92.079,142.425 93.586,142.551 94.364 C 142.816 95.998,144.733 97.808,147.025 98.589 C 147.565 98.773,148.059 99.010,148.125 99.116 C 148.191 99.222,148.407 99.309,148.605 99.309 C 148.804 99.309,149.397 99.535,149.922 99.812 C 150.447 100.088,151.233 100.429,151.668 100.570 C 156.743 102.213,156.566 110.684,151.409 112.963 C 147.458 114.708,139.383 113.827,138.782 111.585 C 138.335 109.915,138.814 108.665,139.671 109.270 C 142.119 110.998,145.714 111.950,147.533 111.351 C 148.086 111.169,148.777 110.969,149.070 110.908 C 150.426 110.621,151.912 108.616,151.929 107.051 C 151.944 105.680,150.984 103.775,150.279 103.775 C 150.166 103.775,149.967 103.642,149.837 103.479 C 149.483 103.036,147.366 101.935,146.518 101.753 C 146.108 101.666,145.585 101.462,145.354 101.302 C 145.123 101.141,144.803 101.010,144.642 101.010 C 143.190 101.010,140.066 98.068,139.580 96.243 C 138.242 91.218,141.738 87.310,147.655 87.214 C 148.595 87.199,149.848 87.332,150.525 87.519 M187.383 87.521 C 190.530 88.301,191.584 89.156,191.296 90.692 C 191.115 91.655,190.771 91.656,188.905 90.701 C 185.100 88.751,181.463 89.425,179.979 92.355 C 178.717 94.844,180.353 97.179,184.476 98.779 C 186.382 99.518,190.408 101.473,190.505 101.706 C 190.547 101.804,190.758 102.050,190.975 102.252 C 191.753 102.977,192.528 105.062,192.526 106.429 C 192.520 111.917,186.930 115.108,179.904 113.635 C 176.469 112.914,175.355 111.906,175.738 109.867 C 175.917 108.911,176.034 108.908,177.533 109.828 C 178.668 110.524,180.064 111.006,182.243 111.455 C 183.183 111.648,183.952 111.583,185.008 111.221 C 185.300 111.121,185.779 110.984,186.071 110.917 C 186.364 110.850,186.943 110.484,187.359 110.103 C 190.359 107.357,188.857 103.528,184.169 101.971 C 183.551 101.766,182.794 101.466,182.485 101.305 C 182.177 101.144,181.753 101.012,181.544 101.011 C 179.747 101.005,176.815 97.665,176.516 95.283 C 175.809 89.643,180.996 85.938,187.383 87.521 M228.313 87.621 C 230.868 88.306,232.624 89.391,233.914 91.082 C 235.294 92.892,236.381 99.184,235.536 100.474 L 235.184 101.010 226.803 101.010 C 216.655 101.010,217.244 100.878,217.375 103.130 C 217.428 104.056,217.572 104.939,217.693 105.092 C 217.814 105.245,217.975 105.710,218.050 106.127 C 218.856 110.609,226.289 112.780,232.217 110.266 C 234.544 109.278,235.165 109.611,234.670 111.581 C 234.261 113.212,226.647 114.522,222.548 113.667 C 218.203 112.762,215.657 110.597,214.675 106.976 C 214.499 106.326,214.203 105.268,214.017 104.625 C 212.107 98.009,215.690 89.639,221.133 88.000 C 221.908 87.767,222.780 87.496,223.073 87.399 C 224.070 87.066,226.649 87.175,228.313 87.621 M257.224 87.677 C 258.964 88.247,260.172 89.143,261.030 90.500 C 262.015 92.058,262.697 92.089,264.080 90.641 C 266.796 87.796,270.506 86.597,273.496 87.598 C 276.072 88.460,277.024 89.324,278.145 91.817 L 278.884 93.461 278.956 103.013 C 279.038 113.847,279.070 113.484,278.021 113.681 C 277.153 113.844,275.607 113.457,275.580 113.070 C 275.570 112.928,275.541 109.032,275.516 104.413 C 275.456 93.315,275.174 92.208,271.983 90.523 C 270.058 89.507,266.425 90.801,264.729 93.107 C 264.389 93.570,263.972 94.002,263.803 94.067 C 262.655 94.507,262.546 95.399,262.509 104.625 L 262.476 113.238 261.966 113.500 C 261.325 113.831,260.464 113.841,259.772 113.525 L 259.236 113.281 259.229 105.693 C 259.220 95.123,259.022 93.880,257.006 91.688 C 254.361 88.812,250.766 89.882,246.871 94.703 L 246.039 95.732 246.039 104.512 L 246.039 113.292 245.398 113.558 C 244.708 113.844,243.419 113.728,242.949 113.338 C 242.714 113.143,242.661 110.906,242.658 100.989 C 242.657 94.328,242.612 88.807,242.559 88.721 C 242.269 88.253,243.118 87.719,244.152 87.719 C 245.550 87.719,245.835 88.081,245.674 89.646 C 245.454 91.773,246.587 91.675,249.123 89.350 C 251.217 87.430,254.438 86.765,257.224 87.677 M158.523 90.643 C 158.625 91.621,158.600 92.079,158.443 92.079 C 158.300 92.079,158.214 91.504,158.214 90.555 C 158.214 88.698,158.324 88.729,158.523 90.643 M223.354 89.821 C 220.373 90.794,217.331 94.562,217.331 97.281 C 217.331 98.687,217.242 98.671,224.871 98.671 L 231.743 98.671 232.100 98.125 C 232.913 96.884,231.547 92.759,229.891 91.455 C 227.846 89.843,225.263 89.197,223.354 89.821 M227.764 90.997 C 230.052 91.688,232.757 97.195,231.100 97.790 C 230.190 98.117,219.187 98.094,218.741 97.764 C 217.793 97.063,219.157 93.565,220.978 92.029 C 222.573 90.684,225.335 90.264,227.764 90.997 " stroke="none" fill="#999e98" fill-rule="evenodd"></path><path id="path4" d="M185.832 71.368 C 185.327 71.789,184.720 72.393,184.482 72.709 C 184.245 73.025,183.716 73.615,183.307 74.021 C 182.059 75.258,180.754 76.781,179.502 78.463 C 178.846 79.343,178.187 80.193,178.037 80.352 C 177.887 80.510,177.036 81.754,176.147 83.116 C 175.258 84.478,174.078 86.263,173.525 87.081 C 171.917 89.463,167.422 98.140,165.869 101.861 C 165.601 102.504,165.155 103.520,164.879 104.118 C 164.604 104.716,164.244 105.625,164.080 106.138 C 162.671 110.543,162.025 110.887,161.728 107.390 C 161.541 105.192,160.461 97.444,160.157 96.119 C 160.036 95.593,159.879 94.797,159.808 94.351 C 159.728 93.855,159.579 93.574,159.424 93.628 C 159.067 93.753,159.209 96.507,159.661 98.246 C 159.971 99.435,160.021 100.844,160.021 108.347 L 160.021 117.065 159.310 120.255 C 158.919 122.010,158.524 123.541,158.433 123.658 C 158.342 123.775,158.202 124.349,158.123 124.934 C 158.044 125.518,157.844 126.427,157.680 126.954 C 157.516 127.480,157.224 128.772,157.031 129.825 C 156.839 130.877,156.603 131.886,156.507 132.066 C 156.411 132.247,156.223 133.204,156.090 134.193 C 155.956 135.182,155.718 136.470,155.560 137.055 C 155.401 137.640,155.158 138.931,155.019 139.926 C 154.881 140.920,154.625 142.547,154.451 143.541 C 154.277 144.535,154.000 146.784,153.836 148.538 C 153.671 150.292,153.446 152.465,153.335 153.365 C 153.224 154.266,153.032 156.802,152.908 159.000 C 152.784 161.199,152.633 163.855,152.573 164.901 C 152.513 165.947,152.406 167.164,152.336 167.604 C 152.217 168.349,152.727 170.628,153.637 173.418 C 153.790 173.886,154.229 175.274,154.614 176.502 C 155.940 180.735,156.194 180.162,156.380 172.517 C 156.531 166.349,157.011 157.555,157.375 154.280 C 157.492 153.227,157.683 151.170,157.799 149.708 C 158.029 146.808,158.835 140.601,159.482 136.736 C 159.708 135.391,159.992 133.668,160.114 132.908 C 160.462 130.743,161.312 126.359,161.701 124.721 C 163.123 118.736,163.983 115.480,165.017 112.174 C 165.383 111.005,165.861 109.474,166.079 108.772 C 166.497 107.429,167.198 105.444,168.069 103.137 C 168.356 102.376,168.752 101.324,168.950 100.797 C 169.148 100.271,169.488 99.458,169.707 98.990 C 171.638 94.861,172.249 93.496,172.249 93.311 C 172.249 93.192,172.706 92.316,173.264 91.364 C 173.823 90.412,174.462 89.298,174.684 88.889 C 174.906 88.480,175.332 87.762,175.630 87.294 C 175.928 86.826,176.281 86.252,176.414 86.018 C 177.652 83.838,178.227 82.888,178.857 81.978 C 179.924 80.435,181.381 78.463,182.014 77.705 C 182.316 77.343,182.706 76.828,182.881 76.559 C 183.580 75.489,185.112 73.497,185.790 72.779 C 186.184 72.362,186.562 71.796,186.631 71.523 C 186.699 71.250,186.841 71.026,186.945 71.026 C 187.049 71.026,187.135 70.930,187.135 70.813 C 187.135 70.431,186.764 70.588,185.832 71.368 M158.245 90.803 C 158.233 91.730,158.291 92.076,158.421 91.853 C 158.533 91.662,158.541 91.076,158.439 90.471 L 158.264 89.421 158.245 90.803 " stroke="none" fill="#32b31c" fill-rule="evenodd"></path></g></svg>